/* XPM */
static char *_38c25a7727f4652f5e6c8188622864fV8CNpPcIuL5pkcqa[] = {
/* columns rows colors chars-per-pixel */
"64 64 151 2 ",
"   c None",
".  c #5E543F",
"X  c #665E4E",
"o  c #6A634F",
"O  c #6A6356",
"+  c #6C665A",
"@  c #6E695D",
"#  c #716A5D",
"$  c #6F6A62",
"%  c #746E62",
"&  c #767166",
"*  c #7A7366",
"=  c #777268",
"-  c #7A756B",
";  c #7D796E",
":  c #7C7670",
">  c #7E7A72",
",  c #817B6E",
"<  c #817D74",
"1  c #847F79",
"2  c #868176",
"3  c #86827A",
"4  c #89857D",
"5  c #8C887F",
"6  c #8A8681",
"7  c #8E8A83",
"8  c #8F8B89",
"9  c #918D86",
"0  c #918E8A",
"q  c #939087",
"w  c #95928D",
"e  c #99958D",
"r  c #9C988F",
"t  c #969491",
"y  c #999693",
"u  c #9C9996",
"i  c #9D9B9B",
"p  c #A09C95",
"a  c #A19E9D",
"s  c #A3A19E",
"d  c #A8A49E",
"f  c #A29FA0",
"g  c #9EA0A1",
"h  c #A4A3A3",
"j  c #A9A6A5",
"k  c #A6A8A6",
"l  c #ABA9A6",
"z  c #A7A6A8",
"x  c #A9A7A9",
"c  c #A7A8A9",
"v  c #ABABAC",
"b  c #B0AEAE",
"n  c #B4B1AF",
"m  c #ADAEB1",
"M  c #B0AFB1",
"N  c #AEB1B4",
"B  c #B2B2B5",
"V  c #B9B6B4",
"C  c #BAB9B7",
"Z  c #B4B6BA",
"A  c #B9B7B9",
"S  c #B7BABE",
"D  c #B6B9BD",
"F  c #B6B9BD",
"G  c gray72",
"H  c #B9B9BB",
"J  c #BAB9BB",
"K  c #B9BABD",
"L  c #B8B9BF",
"P  c #B8BABF",
"I  c #B9BABF",
"U  c #BABBBE",
"Y  c #BCBCBC",
"T  c #B9BABD",
"R  c #B7BAC0",
"E  c #BABBC1",
"W  c #B9BCC1",
"Q  c #BBBCC1",
"!  c #BABDC3",
"~  c #BDBEC1",
"^  c #BCBCC3",
"/  c #BCBEC3",
"(  c #BEBFC3",
")  c #BDBFC5",
"_  c #BBBDC2",
"`  c #C0BFC2",
"'  c #BFC0C4",
"]  c #BDC0C6",
"[  c #BEC0C6",
"{  c #BFC0C7",
"}  c #BFC1C7",
"|  c #BFC2C6",
" . c #BEC0C6",
".. c #BFC1C8",
"X. c #BEC2C8",
"o. c #BFC3C8",
"O. c #BFC2C8",
"+. c #C0C0C4",
"@. c #C3C3C7",
"#. c #C3C5C7",
"$. c #C4C4C7",
"%. c #C1C2C5",
"&. c #C0C2C8",
"*. c #C0C3C8",
"=. c #C1C2C9",
"-. c #C0C3C9",
";. c #C1C3C9",
":. c #C1C4C8",
">. c #C2C4C9",
",. c #C1C5CB",
"<. c #C2C4CA",
"1. c #C2C5CA",
"2. c #C2C4CB",
"3. c #C3C6CB",
"4. c #C6C6CA",
"5. c #C2C5CC",
"6. c #C3C5CC",
"7. c #C4C6CD",
"8. c #C5C7CD",
"9. c #C5C6CE",
"0. c #C5C7CE",
"q. c #C6C7CE",
"w. c #C2C4CA",
"e. c #C6C9CD",
"r. c #C6C8CE",
"t. c #C6C9CE",
"y. c #C8CACF",
"u. c #C9CACF",
"i. c #C7C9D1",
"p. c #C7CAD0",
"a. c #C8CAD1",
"s. c #C9CBD1",
"d. c #CACCD2",
"f. c #CCCED5",
"g. c #CECFD5",
"h. c #CDCFD6",
"j. c #CACCD3",
"k. c #CED0D7",
"l. c #CFD1D8",
"z. c #D0D2D6",
"x. c #D2D2D7",
"c. c #D0D2DA",
"v. c #D1D3DA",
"b. c #D2D4DB",
"n. c #D6D8DF",
"m. c #D8D9DE",
"M. c #D7D9E0",
"N. c #DADCE1",
"B. c #DBDDE4",
"V. c #DFE1E8",
"C. c #E2E4EC",
/* pixels */
"4 v j x y c D h 9 %   h N N Z B     Z v h t   t x v Z W W W 0...W   Z     v ..=.f     3 B m B Z v i h i 9 0   < e 7 8 7 5 q 4   ",
"  6 v T B T T 4       v h N Z p.h / a.W Z Z   l T T T D B =.e.z.z v B.  y f.6.=.0.1   y c v z h h f h f y 4   3 u e 9 q e r -   ",
"      4 4 8 <   :.=.Z v D m N o.z / ' N ] h   7 u z M e.#.i 3 0   g o.  v p.:.6.0.6   t U ! v h a a f i s ;   8 a y y a 6       ",
"  a x   D     B b.:.Z m c v Z d.u v Z D F     W       i 6         h B   W 6.! ..=.8     h h i z h h x J x     4 v l s 7         ",
"w v m Z %.m   :.Z N ] N i ' #.h   g +.x >   o.o.^         0.0.0.6.    y :.! W ..` i     q             h       7 u a     X & <   ",
"< s h m ^ f t B m ! ] Z   i g     t 9 > / e.3.W k.z     e.f.p.0.c...  y =.=...] 2.m   t v y y t 4       i 6 +       % 9 e 4 5 + ",
"  u x M / h 8 D B S ! e.    w h v     N e./ N N ! B   v j.=.2.6.=.l.g t :.6.=.=.0.D   y x a e y p     x Z s < 4     5 y 0 < 5 - ",
"  t x h x f 6 N N W ] p.y   v h v q   ! B B Z Z N h   h p.6.^ B p.f.v z j...:.=.p.m   y a u 0 w u   6 B h h e h   - 2 - # < 4   ",
"9 < v p v 0   h h v ! #.7 t B y 9 ; 7 x F B B N v w   w e.v.:.N Z M.y v j.=.:...p.z   g x h u h B   7 ] v x q u 3   u u 0 @     ",
"    < u 9     9 h k x 7     l e 5 &   u k N N B m 3       c N B < t   y d.6.2./ p.h   h x i v A 8     u B v 9 y     u u <   7 j ",
"  a             & @ &   u     3 3 %   3 s x x x h     v z           o.  B 6.=.0.0.h   w x v ! q           h V 3   7         p a ",
"  B M   u B a 9   c N h v v             ; u s j #   j.a.p.e.0   v ..M.Z u k.=.^ f.y     b !     0 v %.w         0 0   v 7   u a ",
"< h U i 9 w < 4 3 C u q u e 4   i x J B     7     ` =.=.6.0.y   W Z ! D   4.0.v v             8 v B h     0 0       0 H i   i x ",
"  5 u w w 7 ;     9 5 7 9 7 w 4 x c x ! Q h     Z Q T ^ ) W x   ! W v Z     M f   m / B v     y a h   o 8 B ^ h 8   8 Z u   h v ",
"  w j 3 - q =     = 7 w 4 8 u   v ' v Z x B B   v D ^ / / N T 0 m p.Z z     %.  h f.6.W ! d.x       6 v v Z D m B 4   B V #   B ",
"  t b %       q   @ r u y a 7     x M h m a m   N D =./ N v 4.w i c.0.y Z C.C.W y ..=.T Z ] %.w   w T D N Z 2.m y t   u h     h ",
"2   2     4 7       7 u q 9   Z     5 c N g N h j.:.=.m v W 4.9   M h   :.] =.^ h Q ..6.:.T ] a , t D Z Z N / h v v       3 +   ",
"4       9 e r r u 9   ; <     ~ 3.h     2 z   h p.T W W =.i.B <   3   Z V...n.T c D / 6.6.:.0.h 7 0 m ! / W / c N z     s e q   ",
"3     p 5 < 3 7 9 e     h     x Z :.y   c D s   B J p.l.a.=.x     D     W ! D   R ^ W ^ W ..0.v 0   f ! D ..W D W 0   u v i v w ",
"+   ; q 4 7 < = ; <   v d.N u D N D Z 4 c u     4 u N v D ` 7   Q B.=.          z e.W / Z W 0.B 0   8 %./ Z N ! ! 3   h f x Z z ",
"    < 7 9 9 7 < % < 6 a B c h D v Z B 3     B h         w y   Q a.0.0.  h T y.!   B ^ ....W Q B       i k.Z Z D u     $.x h D m ",
"    3 9 7 7 9 9 q - ; u !   h Z c F c   h d.B ' i   :.6.Z   h b.W ^ d.h a F Z e.  y k.j.p.D z     h     i F :.z o     x v x %.m ",
"u 2 4 r 9 9 q e r   < ` i   u B F B   7 F N h Z w   ^ b.b.t B p.^ %.f.a t F B D h   v D N f     N d.%.v     x     ! !     h c   ",
"e <   9 9 e < < =     1   7 h B h   3 j h u k N s     ` =.  Z p.=.0.a.h 8 B Z v Z       Z v     %.6.W l.N     v b.b.v.=.m       ",
"&       & = = 0 i f i 6   7 V u   2 j h y w z h h a         v p.=.=.f.B < B Y x m u   h f.v.u   q ] ] ] f.6 y m.6.=.6.j.6.B h   ",
"  ; t i     h v M M J h t   q   < s h h z i i f m b     t   x d.=...k.Z * B D u s u   u T D %.m   s 0...%.4 Z a.=.:.:.=.Z ..v   ",
"; 9 v $.  0 b u i v m x F g     r u a v D f f h x y   h 4.u h f.] =.d.Z 2 x v f w j y   x T Q T   7 b.M.B   W a.=.6.=.=.] d.i   ",
"9 i v m % 8 p q h m v N Z '   % y h x N m u a h v   s Q v y   6.l.6.j.v 7 C Z M M B 8   v ^ Q =.y   u x     %.=.:.6.=.0.b.k     ",
"u M x a > 6 v h f w h N Z m y   e h v x a w u b 4   v N i j     W %.q.    0 v v u >     x ! ^ %.8     m     W =.6.:.6.b.h       ",
"< u 0 4 < = x x u w y x v m q   9 s h h B v v 8     v ] Q m           Z Q       m ] /     U 4.h     D =.#.3 W v.a.n.:.h   v h 5 ",
"< w 8 7 :   y f t h h h h m s     < u b B B 6         B Q     =.0.    %.v.W     6.j.j.v     w     Z j.=.e.g   ..N v     N X.Z k ",
"1 > < 4 %   3 w i x Z B x a 9       & 4 6 =   e U y.v     T d.j.v.=.  Z 0.b.h Z d.:...e.B     Z %.! D ! ^ Z           u B N Z N ",
"- , & * +     4 M y t u       3 j c i       e h B 0.a.m   f.0.=.=.^   Q 0.e.v =.Z =.=.=.a.v   e.W Z Z / D ! > c W a.  u M Z m Z ",
"  @ O   7 7 >       u u u h   1 v Z B i   y m v m ! 0.^ a T =.=.6.W   Z =.0.h 6.! ^ 0.] ^ T   Z W D ..D Z ' q g e.p.v y B M B m ",
"    7 8 q s j 7   y s m v Q u < B B N ..4 t v N Z D ^ f.v B f.=.6.=.m T D F y ! :.^ ..T ! T   B 6./ ! Z B ..i 8 N x u v m m B c ",
"& q q q 8 9 u s @ t d h m Z w < b m m y 3   j N ! T W l.D y a.Z =.:.  D x ' c h d...W Z ..T     j.p.W c N u.8   B B a   m Z N c ",
"& q 7 8 9 < 9 5 #   a f y a y 3 v B c a y   B Q Z 6...i.^   m B e.Q     B h     t ' k.p.l.h       N F A ! i       i     Z B g h ",
"; r 7 q w 4 9 ; -   u l 9 p e   a x t u u   v ^ / ^ / 6.=.  h W k.B         x v     B B g   h v m           D W S v     Z B m y ",
"  5 e 9 7 9 3 - O     7 r 9       0 q q 3   g Z / 6./ ) a.    ] b.  v U U ! ] F Z B v     h ] S :.:.t     d.e.:.] k.u   z 6.f   ",
"8 3 2 7 9 4 #     h h   2   h v     4 2     i Z Z ....6.e.    h     F N N h x c B 8.b.  w ! D Z m W Q +   e.m Z B D h O 6 w     ",
"h j 4   < -   3 v D M x     b a   x B       w %.W Q =.=.N   ] 6.D   m B m N m v W ] W y m Z m N N h W 8 y p./ Z S Z B -       h ",
"u h h >     # 9 h h i h b   y h B B F :.v 7   :.=...0.v.Z   b.=.b.!   W D B z Z ^ / m   m v N N Z Z F 8 y i.o.N D W v   a w   x ",
"t u u e 8   < 8 h f h f h <   Z v a a h e v < m e.^ a.:.  B :.6.:.k.B N Q m x Z 6.y.g   m h u m ^ ..b   h p.^ D / Z c         s ",
"h 0 8 7 s 3 2 u f h u e y # y x h h x x j y     x B Z   Q =...6.=.! =.  v T v Q f.z     h m h B ' h 6   v p.^ W ] D y   x y   4 ",
"f f t 9 a 6 5 y a y 0 r <   v x y e w t 7     q k N     6.../ D ] ..k.Z w y h 0.Z   6.l.    a h i       B :.W D W A * 8 v j   & ",
"t b f p v < t j q q u 2       u y 4 - 6     y m D b.k 6 y.6.D m ^ :.6.Z     y     ^ l.m h         5 8   v ] W 0.%.8   a u s ;   ",
"  0 x h v < 6 a 7 3 >   3 %     7 y a h m   i U Z c     v p.W W ....e.Z   W m     T p.m c     6 a b v * h #.Z Z y   0 v h w     ",
"6   a x a ;   - -         1 u u h l b N Q i   h N i c v   Z d.:.2.=.l./ Z a.q.g.M   Z 0.B   0 A s h e 4     g z     v B i %   w ",
"e   6 B a     O + ; < -   4 v j h y f z h a     y h Q %.a   ] l.=.=.f.Z M v W 0.n.Z   w w   h i f m y w =   x 0.D < 8 i   u h   ",
"9 <   9 w   , < < q 5 5 < ; y a a y f f h a <   u m v x $.h   Z k.v.Z   M Z W Q ] b.h     8 a u h h x u -   F :.] h     y B e.c ",
"9 e     @ @ & 4 7 9 4 9 3   s a 0 f a h u p 9 6 x m m m Z u     / %.    q.6.....! ] v   a.  t A f v i h 9   Z Q ] n - w :.m N ] ",
"7 a ;   @ % ; 5 7 7 2 2 %   - u u u u y 7 u 0 , v m v Z +.* Z T         i a.0.:.Q a.Z i Z     u u m i v B   Z y.T F 4 t D v N Z ",
"9 a <   - & 4 3 > 4 9 2         y h u 9 e u   & y h N N 4   B b.    x a   h e.0.Q k.M     ] B   w T T A y   h ^ x B w 7 U v v N ",
"9 q 5 + ; & ; 3 3 4 9 9   7 9 @   w b e 4     5 s U B w     m h i p.B v h   v ^ D m     h B.j.h   u x w     i y.c +.    X.J c Z ",
"7 l w   ; # & 3 4 7 q %   4 e e 3   7 -         t v   v a.c     g p.x u b 9   ^ W   Q B g Q N T     0 y 0 <   T e.v     i N B g ",
"7 w     # - = , 5 *   <   < < 6 a ;     u N v v i     U ] '     6 Z h u h j       ^ b.Z   v v v     f v v s #       i u #       ",
"- ;       # @ @ +   u b   3 4 ; a j 5 & d m T Z z     :.] ^ a   6 v g h z h a     l.6.D   i B h   a v h a x e .   8 v B e & 4 4 ",
"w 7 9 -     &       w h ; < 4 4 q u w 6 9 e x B B i v y.] ! B   t z v c h h Z 0   p.=.B.B w B.z 4 y y h t h x 4   3 y v N 9 p B ",
"w q q 4   - 7 5 0 0 w 4   3 7 5 0 i e 8 v y a x v u Z ] =.Q 4.  u B Z N v m M h ; W :.D         7 9 i f 0 f B t   5 5 z N h i N ",
"7 8 7 <   3 s u u a u 7   < e t w u q   0 a v b y m ] Z D ! y.y   v v N z v m h =     i u h     e u h f 0 v B 8   8 5 w h h w q ",
"7 9 9 &   4 u e w e 9 e >   7 y 9 q 7   3 7 w     m N Z T D ! v   v N f i f Z v %   N ^ ` 0.z   7 u h a 7 s u u   % v h f f 8 7 ",
"7 q 4 @ % 9 8 5 8 q 8 9 7   < 9 7 e 7 4 e 9 7   0 Q W Z Z ! v v 8 t Z m y a z x X x 0./ p.D h   q w a u 0 t x w     : a f B u u ",
"9 4 5   ; e q 7 5 > 4 q 5   & q 9 e 4 7 7 y x ; 6 D W / Z f h v t   6 ^ m v U t   D 6.=.2.] h   q h m 0 y v w   9 j     % a x 6 ",
"5 < -     3 5 > = @ 3 5 -     3 w 9   < q w u 8   i m N f a h a       0 u 0 t     v =.:.^ v       4 i u u w     9 y       + 6 - "
};
