/* XPM */
static char *e285f4b6eed34cc4a742c31bcc406ab18OCq6WAhtgl86lyO[] = {
/* columns rows colors chars-per-pixel */
"64 64 193 2 ",
"   c None",
".  c #B13D00",
"X  c #B24400",
"o  c #B64B00",
"O  c #B94F00",
"+  c #BF5F00",
"@  c #BE6300",
"#  c #C05B00",
"$  c #C56D00",
"%  c #C96B00",
"&  c #D17C0D",
"*  c #C06D28",
"=  c #CA7829",
"-  c #C07A3C",
";  c #D3830D",
":  c #D58612",
">  c #D4871B",
",  c #D48C19",
"<  c #DA921E",
"1  c #E2A21A",
"2  c #D68E27",
"3  c #D18228",
"4  c #D69023",
"5  c #DA9424",
"6  c #DE9B24",
"7  c #D7912A",
"8  c #DC9E2F",
"9  c #D69031",
"0  c #DC9C35",
"q  c #DD9F3C",
"w  c #DFA12F",
"e  c #DCA134",
"r  c #E0A026",
"t  c #E6AC2A",
"y  c #E9B429",
"u  c #EBB92F",
"i  c #F2B42F",
"p  c #E5AD32",
"a  c #E1A63B",
"s  c #E5AF3E",
"d  c #E1A330",
"f  c #E7B136",
"g  c #EDB534",
"h  c #E6B03B",
"j  c #E9B43C",
"k  c #ECBC3B",
"l  c #EEBC32",
"z  c #F3BB36",
"x  c #EEC138",
"c  c #FFC435",
"v  c #F7C834",
"b  c #FFC837",
"n  c #FFC938",
"m  c #F8C73D",
"M  c #FFD03E",
"N  c #C78747",
"B  c #C68748",
"V  c #D89842",
"C  c #D79B4C",
"Z  c #C78F50",
"A  c #CA9959",
"S  c #DFA541",
"D  c #CDA05F",
"F  c #DDAB58",
"G  c #E3AD42",
"H  c #E8B746",
"J  c #ECBC45",
"K  c #EBBC4B",
"L  c #E4B14A",
"P  c #E5B454",
"I  c #EBBC54",
"U  c #E8BB5C",
"Y  c #D9AA62",
"T  c #DBBB74",
"R  c #E5BF6F",
"E  c #EFC243",
"W  c #EEC34B",
"Q  c #F4C743",
"!  c #F4CB43",
"~  c #F9CE44",
"^  c #F2C44D",
"/  c #F4CC4A",
"(  c #FCCC48",
")  c #FCD244",
"_  c #F5D24D",
"`  c #FED34C",
"'  c #FEDA4D",
"]  c #F6D345",
"[  c #EDC253",
"{  c #EDC35C",
"}  c #EFC95C",
"|  c #F2CC55",
" . c #F8CE51",
".. c #F2CD5C",
"X. c #F1C25B",
"o. c #F6D353",
"O. c #FED652",
"+. c #FED955",
"@. c #F6D45C",
"#. c #F9D55B",
"$. c #F7D85C",
"%. c #FEDB5C",
"&. c #FEE455",
"*. c #FFE953",
"=. c #FDE35C",
"-. c #FFEA5D",
";. c #EDC462",
":. c #EECB65",
">. c #E9C46A",
",. c #EECC6B",
"<. c #F1CE65",
"1. c #F1CE68",
"2. c #F3D263",
"3. c #F8D762",
"4. c #F7DA61",
"5. c #FDDD63",
"6. c #F3D46A",
"7. c #F5DA6D",
"8. c #FADD6C",
"9. c #E6C271",
"0. c #EDCC74",
"q. c #E1C57C",
"w. c #EECF7B",
"e. c #E8C77A",
"r. c #EED075",
"t. c #EED27B",
"y. c #F2D573",
"u. c #F5DA73",
"i. c #F9DE71",
"p. c #F1D37B",
"a. c #F4DB7C",
"s. c #FEE264",
"d. c #FFEC65",
"f. c #FEE36B",
"g. c #FFEA6C",
"h. c #FFF16D",
"j. c #F7E176",
"k. c #FDE572",
"l. c #FEEA74",
"z. c #F7E17E",
"x. c #FBE57B",
"c. c #FFEC7C",
"v. c #FFF374",
"b. c #FFF37C",
"n. c #EED282",
"m. c #EDD38C",
"M. c #F2D985",
"N. c #F0DF8E",
"B. c #EDD495",
"V. c #F7E283",
"C. c #F9E482",
"Z. c #FEED83",
"A. c #F5E38B",
"S. c #FEED8A",
"D. c #FFF184",
"F. c #FFFB85",
"G. c #FFF38C",
"H. c #FFFB8D",
"J. c #F5E997",
"K. c #FDEE94",
"L. c #F6E59C",
"P. c #FAEC9B",
"I. c #F0E191",
"U. c #FFF493",
"Y. c #FFFB94",
"T. c #FEF79D",
"R. c #FFF69B",
"E. c #FFF999",
"W. c #FFF89D",
"Q. c #FFFB9E",
"!. c #FFFA9D",
"~. c #F7EBA6",
"^. c #FAEFA5",
"/. c #F9EFA9",
"(. c #F6EAA9",
"). c #FFF6A3",
"_. c #FEF9A2",
"`. c #FFFFA2",
"'. c #FEF9A4",
"]. c #FFFAA5",
"[. c #FFFCA7",
"{. c #FFFDA6",
"}. c #FFFAA4",
"|. c #FEF6A9",
" X c #FFFFA9",
".X c #FFFFAB",
"XX c #FFFDA8",
"oX c #FFFFAD",
"OX c #FFFBAB",
"+X c #FCF6B2",
"@X c #FFFBB3",
"#X c #FFFEBC",
"$X c #FFFFC0",
/* pixels */
"                                                                                                                                ",
"                                                                                                                                ",
"                                                                                                                                ",
"                                                                                                                                ",
"                                                  | u.V.S.Y.Y.Y.Y.H.F.b.k.4.$.                                                  ",
"                                            ..z.E.oXoXXX'.W.T.Y.Y.U.G.G.G.F.F.b.f.%.                                            ",
"                                        6.U.oXoXoXXX_.T.R.Y.U.U.G.G.D.D.c.c.c.l.l.v.h.%.                                        ",
"                                    2.W.oXoX[.'.'._.`.`.Q.E.Y.U.G.G.D.D.D.b.l.l.f.f.f.d.d.%.                                    ",
"                                k Z.oXXXXX).[.oX[.W.N.9.F q 9 2 4 6 w s [ 2.f.l.g.f.5.5.%.=.-.%.                                ",
"                              ..`.oXXX'.'.XXXXA.Y = $ > S U :.y.a.r.0.>.P w 1 u o.s.s.%.%.+.O.&.%.                              ",
"                            6.oXoX'.'.XXoXm.B # 4 [ f.c.D.G.Y.Y.G. XoXXX{.R.V.:.f y / %.%.O.` ` +.=.                            ",
"                          u.oXXX'.'.oXJ.Z O e $.l.l.c.Z.Z.G.S.v.x.S._._.T.T.`.Y.S.7.k l ( O.` ` +.+.d.                          ",
"                        a.oX[.'.[.oXq.X , @.g.g.g.k.j.D.G.Y.U.&.-.A.'.T.T.G.b.j.Z.H.Z.@.x Q ` O.+.%.5.h.                        ",
"                      7.oX[.'.XX[.D X H s.s.f.$.&.d.j.U.U.W.T.M.S.K.`.T.Y.U.=.h.j.c.b.c.f./ ! +.%.5.s.8.v.                      ",
"                    2.XXXX'.XX_.B @ o.s.s.f.l.c.o.$.Z.U.R.W.[.XX{.T.Y.U.U.C.s.=.x.c.l.l.f.f._ _ %.5.f.f.l.g.                    ",
"                  E [.oX'.XX'.B $ %.%.8.f.k.l.D.C.S.Y.T._.'.W.f.z.R.Y.U.U.G.G.x.c.c.l.f.s.5.5._ o.8.k.k.c.D.g.                  ",
"                  G.oX'.[.XXA @ %.s.g.f.j.c.Z.D.G.Y.U._.'.XXR.s.[ A.Y.G.G.G.Z.c.l.l.f.f.s.l.#.O._ +.k.c.c.S.F.                  ",
"                6.oX'.'.oXT o #.=.#.=.g.f.c.D.G.U.R._.XX).D.c.k.c.c.Z.c.c.c.c.l.k.g.f.#.' h.#.( ` +.4.c.c.Z.G.l.                ",
"                Q.XX'.XXI.. ^ s.s.5.4.$.Z.D.G.U.R._.`.S.f.k.j.b.c.S.U.R.U.c.k.l.f.s.s.%./ ! O.` O.+.%.l.S.S.U.E.4.              ",
"              u.oX'.[.[.- 0 s.s.f.l.c.c.G.G.U.R._._.f.s.a.w.A.Y.0.x.D.G._._.S.| f.s.%.%.O.( ` O.+.$.%.=.S.K.U.R.Z.              ",
"              Q.oX_.oXq.@ 4.s.f.k.c.Z.D.G.Y.U._._.k.s.z.9.U.W.Q.r.x.D.l.S.Y.S.H s.%.+.O.` ` O.+.%.5.5.s.k.U.U.).[.$.            ",
"            7.oX'.XX).* H g.f.f.c.Z.D.G.U.T._.[.S.s.D.>.A.Y.G.XXt.j.D.l.k.D.S.K %.%.O.` ` O.O.%.5.3.f.l.s.U.).).oXC.            ",
"            S.XX_.XXq.$ s.f.v.j.c.D.G.Y.W.'.[.W.c.c.D.>.Y.D.D.XXt.8.c.l.s.c.Z.I O.O.) O.O.O.%.%.s.l.l.x.g.Z.).).@X[.            ",
"            [.XX`.[.N h l.s.-.k.Z.G.U.W._.'.'.U.c.D.U.,.G.G.S.`.t.8.l.f.s.l.Z.I O.` ` O.O.%.5.8.%.-.s.z.c.g.).[.oX#X6.          ",
"          7.oX'.[.A.% 3.v.6.f.k.G.U.R._.'._._.U.D.U.`.a.C.D.D.Y.r.3.g.f.%.f.K.I ) ` O.+.%.3.5.k.3.3.k.S.G.l.U.@X@X#XA.          ",
"          C.oX_.`.9.> c.x.Z.G.G.U.T._.[._._._.G.S._.'.U.8.Z.c.Y.0.4.f.5.%.%.x.^ ` O.+.%.5.8.f.k.x.Z.S.S.R.Z.D.@X@X$X'.          ",
"          Y.XXT.Q.C L D.c.G.G.U.W._._._.W.W.W.U.S.[._._.D.l.l.G.:.#.s.%.O.O.~ ) O.O.%.5.s.k.k.x.Z.S.S.U.T.U.c.@X#X#X@X          ",
"          Q._.E.U.3 2.D.G.G.Y.T.W.[._._.W.W.U.Y.c.U.W.U.U.Z.l.b.:.#.=.+.O.` O.O.O.%.5.8.f.k.x.Z.S.S.U.R.).).c.@X#X@X@X}         ",
"        $.`.T.E.A.; j.H.C.U.E.`.'._.W.W.W.U.U.G.S.k.G.U.D.S.c.l.}  .%.O.` ` O.O.%.%.f.f.k.x.Z.S.G.K.).K.).@XZ.'.@XOXoX,.        ",
"        8.`.E.Y.a.> Z.D.l.D.P.{._._.W.R.U.U.G.D.D.c.f.Z.Z.l.l.f.5.5.` ( ` O.+.%.5.8.f.k.x.Z.Z.S.U.R.G.c.A.#XD.R.@X'.[.6.        ",
"        f.Q.U.Y.r.7 G.k.*.s.J.].W.W.R.Y.U.G.D.D.c.c.l.5.f.l.f.s.%.%.%.O.O.O.3.5.f.f.k.x.Z.S.K.U.R.[.f.*.x.+XU.U.OX).Q.6.        ",
"        f.E.G.Y.,.0 E.U.6.U.T.`.W.W.U.U.G.G.D.D.c.l.l.f.%.%.%.%.O.) O.%.%.%.5.8.f.k.x.Z.S.G.U.R.).|.J.Z.P.#XG.G.).U.W.6.        ",
"        f.E.D.H.:.q T.'.'.{.T.T.W.U.U.G.D.D.Z.c.l.k.f.s.5.%.O.` ` O.%.%.f.5.8.f.k.c.c.S.U.U.T.).).@X#X#X@X|.G.G.W.U.H.<.        ",
"        f.Y.D.H.<.q `.'.`.T.T.R.U.U.G.G.D.c.c.l.k.f.s.5.%.%.O.O.O.5.5.f.k.k.8.l.x.Z.S.S.U.R.).|.@X@X#X@X|.T.D.G.U.D.H.}         ",
"        f.H.D.D.7.0 '.`.'.R.T.Y.U.G.D.D.Z.c.l.l.f.s.5.%.O.` ` %.^ O.k.x.c.S.x.8.Z.S.K.U.R.).|.@X@X#X@X|.R.U.D.G.G.S.b.[         ",
"        s.H.D.D.j.6 P.`.U.T.U.H.G.G.D.c.c.l.f.f.s.s.%.%.O.) O.f.K  .5.x.U.U._.u.z.U.U.T.).|.@X@X#X@X|.T.U.D.D.D.D.c.b.E         ",
"          F.D.c.l.1 A.[.D.c.Z.G.D.S.c.c.l.l.f.f.5.%.+.O.` ( %.l.{ #.f.5.K.).OXP.1.R.R.).|.OX@X#X@X).D.x.Z.c.D.D.c.l.v.h         ",
"          b.c.l.l.t t.Y.%.d.j.Z.D.b.c.l.f.f.s.%.+.+.O.( ` O.5.c.{ #.k.k.x.@X#X@X{ R.).|.@X#X#X@X[.C.&.g.j.l.D.c.l.g.d.r         ",
"          f.c.l.l.E { U.j._ c.c.c.c.l.f.f.f.%.8.S.+.) O.O.O.8.G.1.3.c.x.x.|.@X'.{ P.OX|.#X#X@X|.T.C.#.s.d.l.D.l.g.g.%.          ",
"          f.v.f.l.o.f G.H.z.D.D.c.l.l.f.s.5.+.i.P.X.) O.%.%.f.W.0.6.c.Z.Z.).'.G.U ^.@X@X#X@X).T.U.G.j.s.s.b.Z.f.s.s.E           ",
"          s.v.g.f.s.y u.G.D.c.c.l.l.f.s.5.%.+.5.x.;.` %.%.%.k.XXw.i.Z.S.S.U.G.l.R |.@X#X@X|.T.U.D.c.g.=.s.D.l.s.s.-.p           ",
"            h.f.s.s.Q W D.c.c.l.f.f.s.5.%.+.) %.c.u. .5.5.s.C.@Xn.i.G.K.U.Z.l.@.e.#X#X@X'.T.U.D.c.g.s.+.l.D.s.=.=.'             ",
"            s.g.s.%.%.u j.c.l.f.f.4.s.%.O.O.( +.c.Z.5.5.k.f.Z.$Xm.j.U.R.G.f.g.P /.#X@X).T.U.D.k.f.s.+.+.D.l.=.+.+.k             ",
"              h.%.%.+.Q / c.f.g.v.8.+.O.` ` ` O.S.U.K.f.5.k.Z.@Xm.V.).U.=.f.;.B.$X@X).T.U.Z.g.g.g.o.] k.D.%.%.' ' r             ",
"              s.%.+.+.` x $.f.+.d.s.O.` ` O.O.O.a.R.|.@X).S.S.W.A.P.U.s.k.9.B.$X@X|.R.U.D.c.$.-.f.] o.H.g.+.+.' m               ",
"              g.d.O.` ` ~ ! 5.#.+. .O.` ` O.+.%.+.5.x.P.).T.D.S.D.k.f.M.m.~.#X@X).T.G.S.l.g.%.! o.m c.b.' +._ ' 6               ",
"                s.O.) ` +./ / %.O.O.) O.O.%.5.3.f.k.k.k.k.c.x.l.6.M.L.~.+X$X@X'.T.G.D.c.f.s.+._ v f.G.$.+._ ) z                 ",
"                  -.` O.+.%._ o.O.) ` O.%.3.5.f.k.k.c.S.S.U.G.%.[ ^.@X#X#X+X).R.U.S.k.s.s.+.' v 3.H.s.' ` ) ) ,                 ",
"                  s.&.+.%.5.5.o._ ` +.%.%.g.l.8.x.c.Z.S.S.R.K.) H (.#X@X@X'.R.U.Z.h.v.f.+.' v 4.H.f.' _ ) ) r                   ",
"                    %.=.%.s.f.f.$.+.%.%.%.&.s.i.c.Z.S.S.R._.).R.P.@X#X@X).T.G.D.l.$.d.$._ v 8.G.f._ _ ~ ) i                     ",
"                      s.5.8.f.k.k.$.+.f.5...f.k.Z.S.U.U.Z.K.|.@X#X#X).G.V.U.Z.l.f.o.+.! m l.H.s.' _ ] M c                       ",
"                        d.k.k.k.c.Z.f.%.f.c.Z.S.S.U.U.8.-.j.+X#X#X@XG.-.l.x.l.g.=.+.] #.D.D.%.' ` ~ ] n ;                       ",
"                          g.c.c.c.S.D.c.s.s.c.S.U.R.R.M.] S.+X#X@X).a.=.f.l.f.=.+.+.c.H.l.%.' _ ~ ] n :                         ",
"                            g.D.S.S.U.U.U.Z.g.l.Z.R.|.@XL.#X#XOX).R.U.x.4.g.s.f.c.G.b.s.+.' _ ] m c ;                           ",
"                              3.H.U.U.U.W.'.).G.c.l.c.U.[.OX[.T.U.G.b.c.b.c.D.D.b.g.%.+.+.` ) ) i                               ",
"                                | H.T.).T.).|.|.@X|.T.D.Z.b.Z.D.D.D.D.D.D.D.l.f.s.=.+.o._ ) M 6                                 ",
"                                    i.`.[.OXOX@X@X#X#X#X@X'.T.R.U.G.G.b.c.g.f.s.%.+.+.' ' i :                                   ",
"                                      K M.oX#X#X#X#X@XOX[.).T.U.G.G.c.c.k.f.s.=.%.&.' x <                                       ",
"                                          H p.).$X$X@XoX[.).Y.U.D.D.c.l.g.d.-.=.` f <                                           ",
"                                                P e.M.K.W.Y.Y.H.F.b.v.d.%.^ h 6                                                 ",
"                                                          a G G G a 8                                                           ",
"                                                                                                                                ",
"                                                                                                                                ",
"                                                                                                                                "
};
