/* XPM */
static char *e5ed1eefe45243c0e8e354878e5b67d7mz8GCSviQjOxpxm6[] = {
/* columns rows colors chars-per-pixel */
"64 64 217 2 ",
"   c None",
".  c #5E543F",
"X  c #665E4E",
"o  c #6C665A",
"O  c #6E695D",
"+  c #6A6356",
"@  c #70695D",
"#  c #6A634F",
"$  c #736E62",
"%  c #767166",
"&  c #777268",
"*  c #7A756B",
"=  c #7D796E",
"-  c #797366",
";  c #7E7A72",
":  c #7B7670",
">  c #6F6A62",
",  c #C56C15",
"<  c #CB7B1B",
"1  c #C67927",
"2  c #817B6E",
"3  c #817D74",
"4  c #847F7A",
"5  c #D38B28",
"6  c #D89A37",
"7  c #D18F36",
"8  c #DDA33B",
"9  c #E1A22E",
"0  c #E3A93C",
"q  c #EDBC3B",
"w  c #EAB73D",
"e  c #F4BD39",
"r  c #FAC63A",
"t  c #F5C53B",
"y  c #B9935C",
"u  c #958469",
"i  c #868177",
"p  c #86827A",
"a  c #89857D",
"s  c #8C887E",
"d  c #9E916F",
"f  c #B89769",
"g  c #AA9A7A",
"h  c #B39D76",
"j  c #B7A97E",
"k  c #CC9449",
"l  c #CA9C56",
"z  c #D19952",
"x  c #DB9D43",
"c  c #DCA347",
"v  c #D2B05B",
"b  c #E2AC45",
"n  c #E4B24D",
"m  c #E9B748",
"M  c #E6BC5D",
"N  c #EABC53",
"B  c #C79D6E",
"V  c #C79F71",
"C  c #C5A168",
"Z  c #CDB866",
"A  c #D9B46B",
"S  c #C7B879",
"D  c #D7BB72",
"F  c #CDAC6C",
"G  c #EEC04B",
"H  c #EEC346",
"J  c #F6CB45",
"K  c #FACE44",
"L  c #F2C74B",
"P  c #FBD245",
"I  c #F6D24C",
"U  c #FDD34C",
"Y  c #FED94C",
"T  c #EEC559",
"R  c #F3CC5A",
"E  c #F4CA53",
"W  c #FED652",
"Q  c #FDDA55",
"!  c #FEDB5B",
"~  c #F7D559",
"^  c #FDE25D",
"/  c #FFE053",
"(  c #D8C578",
")  c #D3C569",
"_  c #EECA61",
"`  c #ECC668",
"'  c #F2CC64",
"]  c #EBD66B",
"[  c #F4D365",
"{  c #F6DA63",
"}  c #FDDD63",
"|  c #F4D46B",
" . c #FBDE6A",
".. c #F4DC6D",
"X. c #E6CA74",
"o. c #ECD679",
"O. c #F2D573",
"+. c #F3DB75",
"@. c #F3DB7D",
"#. c #F9DF71",
"$. c #FEE264",
"%. c #FEE966",
"&. c #FEE46B",
"*. c #FEE96D",
"=. c #FDE572",
"-. c #FEEA74",
";. c #FBE57B",
":. c #FEEC7C",
">. c #F6E77B",
",. c #FEF174",
"<. c #FDF17C",
"1. c #8A8681",
"2. c #8E8A83",
"3. c #8F8B89",
"4. c #918D85",
"5. c #918E8A",
"6. c #939087",
"7. c #95928C",
"8. c #99958D",
"9. c #9B988F",
"0. c #9A9285",
"q. c #969491",
"w. c #999693",
"e. c #9C9995",
"r. c #9D9B9B",
"t. c #A39988",
"y. c #A19E9D",
"u. c #A09C95",
"i. c #B6A88C",
"p. c #A3A19E",
"a. c #ABA29A",
"s. c #B4A996",
"d. c #BDB69A",
"f. c #B7B085",
"g. c #A29FA0",
"h. c #A4A3A3",
"j. c #A9A6A5",
"k. c #A6A6A8",
"l. c #A9A7A9",
"z. c #A6A8A9",
"x. c #ABABAC",
"c. c #ADAAA6",
"v. c #B1AEAE",
"b. c #B2AEA5",
"n. c #BAB3AA",
"m. c #ADAEB1",
"M. c #B1AFB1",
"N. c #AEB1B4",
"B. c #B2B3B5",
"V. c #B3B6BA",
"C. c #B6B9BC",
"Z. c #B9BABE",
"A. c #B9BABC",
"S. c #BBB7B7",
"D. c #CAB988",
"F. c #D1B784",
"G. c #C6BB93",
"H. c #C9AF92",
"J. c #C6B9A5",
"K. c #C5BDB9",
"L. c #DFCD84",
"P. c #DBCB8F",
"I. c #DAC694",
"U. c #DCD480",
"Y. c #E4CF82",
"T. c #EDDD89",
"R. c #EDD787",
"E. c #F4DD84",
"W. c #EAD995",
"Q. c #F4E285",
"!. c #F9E584",
"~. c #F6EE86",
"^. c #FEEC83",
"/. c #F6E48B",
"(. c #FDED8A",
"). c #F8E68C",
"_. c #FEF184",
"`. c #FFF38C",
"'. c #FEF98C",
"]. c #FFF987",
"[. c #FAEC92",
"{. c #F5E698",
"}. c #F8EC9A",
"|. c #F4EA98",
" X c #FFF493",
".X c #FFFA95",
"XX c #FEF59A",
"oX c #FFF99D",
"OX c #D6CAA7",
"+X c #CDC4B4",
"@X c #F6ECAD",
"#X c #F8EEAB",
"$X c #F8EEA4",
"%X c #FEF6A3",
"&X c #FFFAA4",
"*X c #FDF5AA",
"=X c #FFFCAA",
"-X c #F7F0A0",
";X c #FFFBB4",
":X c #FFFDBA",
">X c #BBBDC2",
",X c #BEC0C6",
"<X c #BEC1C5",
"1X c #BEC2C8",
"2X c #C2C3C5",
"3X c #C0C2C8",
"4X c #C2C5CA",
"5X c #C5C7CE",
"6X c #C2C4CA",
"7X c #C6C9CE",
"8X c #C8CACF",
"9X c #C7C9D0",
"0X c #CACCD3",
"qX c #D2D4DB",
"wX c #D5D6DB",
"eX c #D0CFD2",
"rX c #DCDEE3",
/* pixels */
"a x.k.l.w.z.>Xk.4.@   h.m.N.V.B.    C.x.h.q.  7.x.x.C.C.>X>X5X1X>X  V.    x.1X1Xg.    p B.m.m.B.x.r.g.r.2.6.  3 8.2.2.4.2.6.a   ",
"  1.c.A.B.A.C.p       x.h.N.C.9Xh.<X9XA.C.V.  c.A.Z.C.C.B.6X5XeXk.m.rX  w.eX5X1X5X4   w.k.m.k.h.h.h.h.h.w.a   i r.q.4.6.8.8.*   ",
"      a a 3.3   6X2XV.x.Z.m.N.1Xh.>X<Xm.>Xk.  1.r.k.M.7X3Xr.p 4.  g.1X  x.9X5X5X5X1.  q.A.A.x.k.y.y.g.r.p.=   2.p.8.e.y.1.      ",
"  y.x.  C.    B.qX6XV.m.z.z.V.0Xr.x.V.Z.Z.    >X      r.1.        h.N.  >X1X>X1X6X2.    h.h.g.k.k.h.j.C.x.    a x.l.y.2.        ",
"7.c.x.B.6Xm.  3XC.N.<Xm.r.<X4Xh.  y.<Xz.;   5X1X>X        5X5X5X5X    w.6X>X>X1X>Xr.    6.            h.      2.e.r.    X % 3   ",
"; h.k.x.>Xg.q.B.m.>X<XV.  r.p.    q.6.; <X5X1XC.0Xj.    9X0X9X5XqX1X  w.1X6X1X>X6Xm.  q.x.w.w.q.a       r.1.o       $ 4.7.a s o ",
"  r.k.m.>Xh.5.Z.N.>X>X7X    7.h.x.    N.7X>XN.V.>XB.  x.0X6X6X6X1XqXr.q.5X5X6X>X5XC.  e.l.y.8.e.u.    j.V.p.3 p     s w.6.3 s = ",
"  q.l.k.l.g.1.m.N.>X<X7Xq.  m.h.x.6.  Z.V.N.V.N.N.h.  h.9X5X>XB.5X0Xm.k.0X>X6X6X9Xm.  w.r.r.4.7.e.  1.B.h.h.7.j.  * i - $ 3 a   ",
"3.3 c.r.c.5.  h.h.z.Z.3X2.q.B.w.4.= 2.x.V.V.N.V.x.7.  8.7XqX1XN.B.rXw.x.0X1X5X1X9Xk.  g.h.p.r.h.B.  1.<Xx.l.5.e.p   e.r.4.o     ",
"    3 u.4.    4.h.h.x.1.    b.8.a &   e.h.N.N.N.m.a       z.b.n.u 0.  q.0X1X1X<X9Xk.  h.x.y.z.A.2.    e.B.x.4.8.    w.r.3   2.j.",
"  y.            & @ %   e.    p i $   a p.x.l.z.h.    F.L.o.>.~.~.~.~.+.( W.OX2X5Xh.  6.z.x.>X7.          h.B.a   2.        u.y.",
"  B.m.  e.B.y.4.  z.N.h.x.x.            = u.p.i.v E.XX&X&X&X&XoXoX.X.X'.'.<.<.+.W.f.    v.>X    3.c.2X7.        4.7.  x.2.  e.y.",
"; h.Z.r.4.7.3 a p S.e.6.e.w.a   r.x.B.B.    Z ~.oX=X=X=X&XoXoX.X.X'.`._.:.:.-.-.*.%.!         4.m.V.h.    5.7.      4.A.r.  r.j.",
"  2.e.7.7.2.=     4.1.2.2.2.7.a l.x.x.S.I.Q.&X=X%X=X=X=XoX).@.+.| { ..&.:.:.-.*.*.$.%.$.L.d.  e.y.h.  X 5.B.>Xk.3.  2.B.r.  k.x.",
"  7.j.i * 6.&     & 2.7.a 2.e.  m.>Xs.L. X=X&X=X=X%XT.M c c x 8 8 8 b n m H E $.&.} ! ! ^ >.d.      2.x.m.N.>Xm.B.a   B.S.@   B.",
"  7.v.%       6.  O 9.r.w.p.2.    f./.=X=X=X=X-XD 5 7 8 E ..!.`. XXX%X}.Q.] T w t ~ ! W Y Q ! j   q.A.C.N.V.>Xm.e.q.  r.h.    g.",
"i   i     a 2.      2.e.8.2.  V.D !.=X=X&X=XY.1 5 G  .-._._.`._.-.`.&X&X&XoX X>.R q J Y U W ! %.) 5.V.V.N.V.>Xh.x.x.      i o   ",
"a       4.8.9.9.e.2.  = 3     G./.=X&X&X-Xl , m &.*.*.=.^.`.XX~.^ !.oXoX.X_.-.^.`.=.L H U W ! ! *.L.x.>X>X>X>Xz.N.k.    p.8.6.  ",
"i     u.2.3 i 2.4.8.    z.  j T.=X&X=X|.7 1 ! %.*.{ Q &.`. XoXoX[. XoXXX X*.$.>.:.<.-.~ J W } &.&.,.d.>XZ.<X>XZ.>X3.  e.x.r.x.q.",
"o   ; 6.a 2.3 & * i   x.8Xb.o.=X&X=XW.1 9 $.$.&.-.>.=.^. XoX&X X~.XXoX X`.^.=.:.:.-.&.} ! I ~ &.=.:.<.+X>XV.m.>X>Xp   h.g.x.V.k.",
"    2 4.4.4.2.3 % i a r.N.( &X=X=X{.1 9 $.&.&.=.^._.`..XoX&X=X`.~ E..X X`._.^.-.-.&.%.&.! W W &.>.:.].( eXA.V.C.e.    2Xk.k.V.x.",
"    p 4.2.2.4.4.6.* * r.+XQ.=X=X%Xk 6 $.! ^ *.;._.`. XoX&XXX`.:.=.:._.:.^.-.-.-.&.$.W %.~ U U ! :.^.`._.( A.6Xk.X     x.l.x.2Xm.",
"u.i p e.4.4.6.8.9.  3 K.( &X&X=XA , ^ $.&.} &.~.`. XXX&X(.=...;.:.^.`.XX X:.=.*.$.} U L W U W Q &.(.`.oX>.  z.    >X>X    h.k.  ",
"8.3   2.6.8.3 3 -     d [.=X&X|.1 E &.&.-.:.^. X XoX&X^.&.O.E. X).+._.`.%X XR } ! ! W P Y W ! } ! (. XXX.X    x.qXqXqX6Xm.      ",
"$       % & & 4.r.p.r.( =X&X=Xz 8 *.&.-.^._.`. XoX&X(.&.O.o. XoX[.+.^.-.:.`.T ! ! W U U W ! ! &.&.*.XX%X=Xo.u.wX5X6X6X0X6XB.h.  ",
"  = q.r.    k.l.M.M.J.(.=X=X{.< ~ *.-.;._.`..X&X&XoX-.:.O.).`.oX}.+.-.=.-.(.T W W U U W ! } &.=.=.*.(.%X;XoXD.9X3X3X6X<XV.6Xx.  ",
"= 4.c.3X  5.v.e.r.z.D.&X=X=Xv 8 *.} %.;.`. XXX&X&X X:..XO.(.`.'.[.| -.&.$.^._ U U U W ! } } ! &.;.:.:.=X;X;XW.7X3X3X5X6X<X0Xr.  ",
"4.r.m.m.$ 5.u.5.h.m.L.=X&X%X5 R ;.&.>.`. XoX&X&X&X`.`.oX(.>._.`.).[ *.$.! ^.` U W W ! !  .&.{ =.(.(.-.=X;X:XW.4X3X5X6X5XwXh.    ",
"r.m.x.y.3 1.x.h.g.6.T.&X&X/.6 &.<._. X XoX&X&X&XoX X`.&X%X;.:.<.;.[ } ! ! } E U W ! } &.&.:.:.(.`.XX^.oX:X:X$XJ.5X3X5XqXh.      ",
"3 r.5.p 3 $ l.l.r.g |.&XoXX.c <._. X XoX&X&XoXoX X X(.%XoX X:.:.;.R } ! W P Y W ! !  .=.:.:.(.[.XX%X`.XX:X:X*XOX9XwX1Xh.  x.h.a ",
"3 5.5.2.:   e.g.8.f.[.oXoXN N '.(..XoX&X&XoXoX X X`.^.:. X`._.-...E ! W U W W ! } &.=.-.;.(.`.XXXX*X%X X;X;X%XI.N.x.    N.1XV.z.",
"3 ; 3 a $   4 8.e.I..XoX.Xn _ _.-.^.&X&X&XoXXX X`.`._.-.-.^.-.-.&.! W U U W ! }  .#.:.:.(.[.XX`.-.[.*X`.=X=X&XX.      r.B.B.B.N.",
"* 2 % - o     s x.S .X.X Xn +.:.^ ;.&XoXoX.X X`.`._.:.:.&.} &.} ! Q ! W W ! }  .&.;.^.(.`.XX%X(.$.).=X`.%X&X.XX.>X5X  e.M.N.m.V.",
"  O +   2.2.;     X..X X_.n o.oX!.%XoXoX X.X`.`.^.^.-.=.*.} ! ! W U W } ! }  .=.:.:.^.[. X%X%X%X%X*X=X`.oXXX'.D 5X9Xx.w.M.B.N.N.",
"    2.4.8.r.h.2.  ( '.'._.n Q.&X=X&XoXXX X`._._.:.-.=.*.} ! ! Y U ! }  .=.&.&.:.:.(. X X%X%X;X:X:X=XXX(. X`._.A M.l.e.m.m.m.V.x.",
"% 6.6.6.2.6.e.p.o ( '._._.N @.=XoXoX X.X`._.^.:.-.-.&.} ! ! W W ~ U  .:.^.!. .^.(. XXX%X*X;X:X:X*XoX`._.`._.<.v V.B.u.  m.V.N.k.",
"% 6.2.6.6.i 2.2.O Z ]._._.G O.&X X X X'._._.:.-.*.&.$.! ! U U ! [ L } :. XoX!.@. X X*X*X=X:X:X=XXX X_._._.^.-.w   r.    C.V.g.h.",
"= 9.2.6.7.a 2.= *   ~.:.:.E T &X:.-.~.`.(.:.-.-.&.} ! ! U U U }  .R &.#.[.;X*X| XX%X%X;X:X:X*X:.>.;.<._.:.-.{ F.Z.x.    B.N.m.q.",
"  a 7.6.2.2.p * +   *.<.-.~ N `.{ ^ ^.^.:.-.*.&.}  .&.U U W W =.@.' =.=.(.:X=X` XX=X;X:X;X=X X! ^ *.:.:.*.*.~ J.>X0Xr.  k.6Xg.  ",
"3.p i 2.6.a @     g.o.,.-.&.w !.~.=._.:.-.=.&.} ! =.!.E W W ! -.).[ :.^.(.*XXX' $X;X:X:X*XoX X=.} &.<.-.&.%.T M.B.Z.h.# 3.7.    ",
"h.x.a   3 *   i l.V.P.,.&.&.q [ `._.:.-.=.&.} ! W } @.R W ! } (.}.| ^.(.`. X:.` *X:X;X*XoX X^.-.$.%._.&.$.^ A V.Z.V.B.&       h.",
"w.h.h.3     @ 4.h.h.s.*.$.$.I H :.:.=.*.&.$.! ! U ! :.[ ! } $.[.$X+.(. X`.:.~ R.:X:X*X%X`.<.-.$.Q :.-.^ ! I H.m.V.>Xm.  y.7.  x.",
"q.e.e.w.2.  3 2.h.h.h.o.%.} ! t { :.-.*.{ ! Q W U ! ^.^.} } &.XX@XE. XXX=.} ` @X:X*XXX`.>.-.&.Y ! _.$.Q / m C.C.>XV.z.        p.",
"h.4.2.2.h.i p r.r.h.r.f.%.! Q U J &.$.%.&.W Y U W W ^.*X*X(.^. X}./. X=. .X.@X:X&XoX`.^.$.%.! I :.-.Q Q U F.>X>X<XC.w.  l.w.  p ",
"g.g.q.4.y.1.1.e.y.w.6.t.] ^ W U J I ~ ! W U U W ! ! } =.[.*XXX[.`.:.#.@.R.@X:X%XoX`.:.-.! I I $.<.Q Q Y w K.>XV.>XC.& 3.x.j.  $ ",
"q.v.g.u.c.3 q.k.7.6.e.i ) ^ U U W I ! W W U W W ! }  .=.=.:.^.-. .@.{.#X:X:X=XoX`.^.*.$.Q J I _.$.Y Y r B 2XZ.5X,X3.  r.r.p.=   ",
"  5.j.k.x.3 1.y.2.i ;   a ) / W W ! I W U U W }  . .=.:.^.(.XX:.J T.:X:X:X*XXX`.:.&.$.Q P I :.&.Y Y P 8 t.6XV.V.w.  7.x.h.q.    ",
"1.  y.k.y.=   * *         g { ! ! } ! W W ! ! %.*. .:.^.(.XX%X(.~ {.:X:X*XXX`.:.%.-.~ P I :.-.Y I t e u     h.k.    c.M.r.$   7.",
"7.  1.B.p.    + o = 3 *   a G.$.$. .*.=.! ! } ~ &.=.(.(. X`. X*X;X:X=X X[.`.:.&.~ Q t ~ ^.*.U P P r y 8.-   j.5XV.; 5.r.  e.k.  ",
"4.3   4.7.  2 3 i 6.s s ; 2 9.D.&.*.=.;.:.$.^ =.;.^.(. X!.%.>.;X:X:X[.%.-.:.*.$.Y I *._.$.Y I P t l l.q.=   Z.5X<Xh.    w.M.7Xk.",
"4.8.    o O % a a 4.a 4.i   p.p.S *.:.:.(.(.-.&.-.(. X%X[.~ (.;X;X=X!.$.=.*.^ ! %.^.:.^ Y I P r l z.r.h.4.  C.>X1XM.* 7.4Xm.N.<X",
"2.y.=   > % * 1.2.2.i i $   * 9.w.S ;.`.(.`.XX X:.-.:. X&X#X:X:X*XXX`.>.&.*.-.<._.*.Q Q U P r k 9.x.y.x.B.  B.9X>XV.a 7.V.m.N.V.",
"4.y.3   - % a a 3 a 4.i         e.h.j ] .XoXoX%X&X&XXX(.`.`.`.`.`._._._._._.:.&.^ Q Y I P w B   8.S.A.C.7.  h.>Xx.B.7.1.C.x.x.B.",
"4.6.2.o = % * a 4 a 4.4.  1.6.O   7.c.t.Z !.=X*X*X;X:X:X;X%XXX`.`.`._.:.-.*.$.^ ~ Q Y t c +X0Xy.  e.l.7.    r.8Xh.2X    4XV.x.B.",
"2.c.7.  = @ $ i a 2.6.$   i 8.8.p   s *     ` oX:X:X:X:X;X=X%XoX X`._.-.-.%.^ ^ Q P b B t.>XB.A.    6.w.4.3   A.7Xx.    y.N.N.y.",
"2.7.    @ = & 2 a -   3   i 3 1.y.=     y.N.c.S ( }.*X;X=X=X&XoX'._.<.,.%.$.W J 0 B eXB.  x.x.x.    h.l.x.h.@       r.e.@       ",
"* ;       @ O O @   e.M.  i a ; r.a.1.% j.M.Z.V.l.f C G.R./.Q.>.>...| _ M v f     eX5XC.  g.B.h.  y.m.k.r.k.7..   2.x.B.w.- a a ",
"6.2.4.*     %       7.h.= 3 a a 7.e.q.1.4.7.h.N.V.u.v.0XC.n.s.  g i.i.y.y.k.B.5.  7X1XrXm.7.rXk.s 8.q.g.q.k.x.a   a w.x.N.4.y.M.",
"7.7.6.a   = 2.a 4.5.q.a   a 2.s 4.y.w.3.c.e.h.x.l.y.V.>X,X>X6X  q.N.C.m.x.m.M.h.= >X3XC.        2.4.y.g.4.g.B.q.  2.1.k.m.k.r.N.",
"2.2.2.3   i p.e.e.y.e.1.  3 8.7.7.e.6.  6.r.x.x.q.x.>XB.>X>X9Xw.  m.x.m.k.x.x.k.&     y.r.h.    8.e.g.g.4.m.B.2.  2.s 7.h.h.6.6.",
"2.4.4.-   a e.7.7.q.4.w.;   2.w.4.6.2.  p 2.7.    M.m.V.C.C.>Xx.  x.B.r.r.g.B.m.$   m.>X>X5Xl.  2.r.h.r.1.h.e.e.  $ c.k.y.y.2.2.",
"2.6.a o % 4.2.2.4.6.2.4.2.  3 4.2.8.2.a 8.4.1.  5.>X>XC.B.>Xm.l.3.5.C.m.e.r.k.k.X z.5X>X9XZ.h.  4.q.y.e.4.q.j.q.    : y.h.N.r.r.",
"4.a s   * 9.6.2.2.; s 6.s   & 6.4.8.a 2.2.w.j.= 1.C.>X>XC.y.h.x.q.  1.>Xm.x.A.q.  Z.5X1X6X2Xh.  6.h.x.5.w.x.7.  4.j.    $ y.l.a ",
"1.3 *     a a = & @ i a *     p 7.4.  3 6.7.r.3.  r.m.m.h.y.h.g.      5.r.3.w.    x.1X5X>Xx.      a r.r.r.7.    4.w.      + 1.* "
};
