/* XPM */
static char *_70b583bee9c467997dd4742cb8fe3f3YgHC2dhwZLL3dkXJ[] = {
/* columns rows colors chars-per-pixel */
"64 64 217 2 ",
"   c None",
".  c #1C1C1B",
"X  c #271E18",
"o  c #2D211B",
"O  c #23201E",
"+  c #35241A",
"@  c #3B261A",
"#  c #382317",
"$  c #2B2723",
"%  c #352A24",
"&  c #3C2D24",
"*  c #342E29",
"=  c #352B25",
"-  c #3B332C",
";  c #393734",
":  c #432615",
">  c #4C2A15",
",  c #432B1D",
"<  c #4C2E1B",
"1  c #462815",
"2  c #542E15",
"3  c #592E14",
"4  c #522F19",
"5  c #4E301D",
"6  c #573016",
"7  c #5C3216",
"8  c #55321B",
"9  c #5C351B",
"0  c #5E391D",
"q  c #47290F",
"w  c #633616",
"e  c #663817",
"r  c #6A3917",
"t  c #623619",
"y  c #643A1B",
"u  c #6B3D1B",
"i  c #693715",
"p  c #713E1A",
"a  c #432E22",
"s  c #443124",
"d  c #4A3223",
"f  c #48362B",
"g  c #523523",
"h  c #593721",
"j  c #5C3B24",
"k  c #5D3E2A",
"l  c #553A28",
"z  c #433C35",
"x  c #493E35",
"c  c #503F35",
"v  c #633D23",
"b  c #693F22",
"n  c #623F28",
"m  c #6D411E",
"M  c #74421C",
"N  c #7A451C",
"B  c #7C491E",
"V  c #5E432B",
"C  c #4C413A",
"Z  c #5B4434",
"A  c #5C493B",
"S  c #664126",
"D  c #6C4324",
"F  c #64422B",
"G  c #6C4529",
"H  c #6E492C",
"J  c #734623",
"K  c #7A4620",
"L  c #744925",
"P  c #7B4B24",
"I  c #714728",
"U  c #744B2B",
"Y  c #7A4E2B",
"T  c #7D512D",
"R  c #79502B",
"E  c #674B36",
"W  c #734E31",
"Q  c #794D30",
"!  c #745134",
"~  c #7D5332",
"^  c #7B5739",
"/  c #6C523E",
"(  c #584C43",
")  c #504F4C",
"_  c #685648",
"`  c #725E4D",
"'  c #775B43",
"]  c #675A53",
"[  c #715F54",
"{  c #6C6459",
"}  c #6E6658",
"|  c #736154",
" . c #75665A",
".. c #78604F",
"X. c #6A6866",
"o. c #746D62",
"O. c #7B6D66",
"+. c #767166",
"@. c #7A756B",
"#. c #7E796F",
"$. c #797467",
"%. c #7D7B77",
"&. c #824B1E",
"*. c #814E24",
"=. c #834F28",
"-. c #845126",
";. c #8A5526",
":. c #83542C",
">. c #89562A",
",. c #86582E",
"<. c #8B592C",
"1. c #925D2C",
"2. c #945C28",
"3. c #835632",
"4. c #855934",
"5. c #8B5D33",
"6. c #845C3A",
"7. c #8A5E39",
"8. c #885731",
"9. c #925F32",
"0. c #95602E",
"q. c #9A622D",
"w. c #8E6035",
"e. c #8D613A",
"r. c #87603E",
"t. c #936235",
"y. c #9B6535",
"u. c #93643B",
"i. c #996639",
"p. c #9C693C",
"a. c #9B6839",
"s. c #A36D3C",
"d. c #A36A36",
"f. c #A9713E",
"g. c #A5703E",
"h. c #805F42",
"j. c #896344",
"k. c #956942",
"l. c #9B6C43",
"z. c #936C4A",
"x. c #976A45",
"c. c #9C714A",
"v. c #9F7047",
"b. c #856C57",
"n. c #8C725B",
"m. c #947559",
"M. c #A26F41",
"N. c #A47144",
"B. c #AB7443",
"V. c #A4754B",
"C. c #AC7B4D",
"Z. c #AB7849",
"A. c #B27D4C",
"S. c #B47B45",
"D. c #AC7D52",
"F. c #A57953",
"G. c #B17E51",
"H. c #887669",
"J. c #927C67",
"K. c #817C74",
"L. c #877B74",
"P. c #B8824D",
"I. c #AD835A",
"U. c #B38152",
"Y. c #B98553",
"T. c #BD8C5B",
"R. c #BA8858",
"E. c #9D8369",
"W. c #858076",
"Q. c #86827A",
"!. c #89857C",
"~. c #8D887F",
"^. c #9A8774",
"/. c #B48A63",
"(. c #BD9369",
"). c #A0856B",
"_. c #C58E56",
"`. c #C39667",
"'. c #CFA372",
"]. c #8A8681",
"[. c #8E8B83",
"{. c #868588",
"}. c #918D85",
"|. c #928E8A",
" X c #95928D",
".X c #9A958D",
"XX c #99958C",
"oX c #969392",
"OX c #9A9693",
"+X c #9C9996",
"@X c #9D9B9A",
"#X c #8E8D93",
"$X c #A19E9C",
"%X c #A09C95",
"&X c #A3A19E",
"*X c #9E9EA0",
"=X c #A19FA0",
"-X c #9FA0A3",
";X c #A4A3A3",
":X c #A9A6A4",
">X c #A5A6A9",
",X c #A8A7AA",
"<X c #ABABAC",
"1X c #ADAAA6",
"2X c #ADAEB1",
"3X c #AEB1B4",
"4X c #B2B3B5",
"5X c #B4B6BA",
"6X c #B7B9BD",
"7X c #BABBBD",
"8X c #B1AFAE",
"9X c #BBBEC3",
"0X c #BEC1C5",
"qX c #C2C3C6",
"wX c #C2C4CA",
"eX c #C7C9CD",
"rX c #CCCED5",
/* pixels */
"!.<X>X,XOX,X6X;X}.o.  ;X3X3X4X4X    5X<X=X|.   X<X8X6X,X.XH.` A / k ] A   @X0XwX&X    W.3X2X3X4X2X@X;X@X|.}.  K.XX[.}.[.[. X!.  ",
"  ].1X7X4X6X6X].      <X;X3X6XeX;X0XeX7X6X6X  @X|. .E 2 r p r 2 3 7 6 t > < E O.XXo.  +X,X<X;X;X-X;X;X;XOX!.  W.$X X[.|.XXXX$.  ",
"      !.!.|.K.  wXwX4X<X6X2X3X0X;X9X0X3X2XH.8 9 p p w 3 p M N 0 3 t t w 3 3 w i 2 # q ` :X6X<X;X$X@X=X@X$X#.  [.$XOXOX$X].      ",
"  $X<X  6X    4XrXeX5X3X<X<X3XrX+X<X|...y K y e p p r w u M N 0 w i 7 e 2 7 u u m q 6 7 6 Z +.*X;X;X:X6X<X    !.<X1X$X[.        ",
" X1X<X5XqX2X  qX6X3X9X2X@X9XwX*XE W m N M B m e p N p w p N P u e u e e t w M u w q 3 7 m q 7 q l     &X      [.+X@X    ] +.#.  ",
"%.;X:X2X9X=X|.4X2X9X0X5X  @X .D &.-.m m P B m r N N p i p N K y e u u e t e M N M q w 7 w 3 m e w > #   @X].}       +.[.XX~.[.} ",
"  @X>X2X9X=X#X6X3X6X9XeX .j m K -.>.m P P -.m m &.&.p i M K N m y m m m y e N N M 6 7 7 m 7 e m u 7 w 0 H.;XK.!.    ~.+X X#.~.$.",
"   X,X:X,X=X].4X2X9X7XH.3.D v P >.>.M P P -.J m *.&.N p M K K m e m m N u m B B M 7 m 7 m w m M u w e u y F L.;X  $.W.$.o.K.~.  ",
"[.W.1X@X<X X  ;X;X@X^ 4.8.G b T <.<.m P :.,.J L ;.T P m B ;.P m m N m B m v P P M t m e e e m m M m m M m w 7 } !.  OX@X}.}     ",
"    K.+X[.    }..XW 3.5.t.U G :.5.1.H T :.,.J L <.,.T L R P T m S L J P m m P P P 0 m m m e m M N M w M M m m 6 Z   +X$XK.  ~.>X",
"  $X            k.t.5.t.u.~ U 5.t.9.L :.,.<.H L 1.<.P L R T <.L L P L U m m -.P L m m m m v m B N M i M M M m w e (         %X$X",
"  4X3X  +X4X+Xz.S.k.u.u.u.~ W w.e.w.R ~ :.<.U U <.,.P L T ;.<.L I P U U R m :.T P 0 J J B m m B M N m M M M M 7 m 0 ] <X].  +X$X",
"#.;X7X@X}.XXn.U.U.p.r.u.i.~ ~ u.e.e.U 4.T w.R ~ 9.,.R L ~ ,.<.R H T U T R L <.:.T m B B M L m B N B m B B B m 0 M m k 5X@X  @X,X",
"  [.+X X X!.z.U.U.x.k.p.v.6.6.x.k.p.H 4.w.w.R ~ t.5.R S T T ,.R U R R T U J <.,.T m R P P R P P B B L R P B B m M y 7 ].%X  :X8X",
"   X:XW.$.^.U.V.U.u.x.c.v.r.^ x.u.k.H 4.w.r.~ ~ t.<.T H ^ 5.w.R R T R T U S 5.T R G R T R R L T T ;.L P -.-.P S J u D { 6X}   4X",
"  oX8Xo.  b.U.I.U.k.c.v.c.^ r.x.l.u.W r.e.e.T R u.w.F V u.a.a.T R ,.T T L 5 V L R G T ;.,.;.m <.;.T L B >.2.P m K D M Z ;X    =X",
"W.  W.    ' j.z.z.' j.j.j.E W h.6.6.F W ! ! n n ! H s O ~ w.u.w.R ,.R V l & z R U j S D H m 0 L m v 8 0 D m 0 q 0 8 6 # ) W.}   ",
"!.      !.) ; ; z x x x C C z c c C ; f f f - f f - * , V f ~ w.~ ~ V & & < & & , & + @ @ + + @ @ @ o @ q q # X o X o o C XXXX  ",
"W.    %X~.b.F.c.F.h.j.z.x.^ W e.w.p.H 4.u.4.H U w.4.A * w.u.a.4.R ~ R R T - + R R m D L R M m P P B m B B T R m m m e @ {.@X1X X",
"{   #. X!.E.T.I.G.l.l.B.N.6.Y a.p.s.T t.a.t.U Y t.T S S ,.w.e.4.~ w.^ T R L H H T G M P T L m >.2.2.B P ;.q.2.B L M m l -X<X5X>X",
"    L.}.[.E.R.U.G.l.u.s.s.3.Y 9.y.y.R ,.t.y.P Y <.,.T I ,.5.t.8.R w.w.4.~ R w.<.<.m H R -.L L -.<.2.R 2.2.2.T B R M M g -X;X5X2X",
"    Q.}.[.E.Y.C.Z.i.9.M.s.8.Y u.y.a.T 8.y.u.T -.9.9.9.L 5.w.e.8.R e.9.5.,.T d.a.0.L T T -.P B <.;.0.B B q.;.B M T R m V -X1X0X2X",
"+XQ.Q..X}.)._.C.S.s.p.B.B.9.Y 9.s.B.:.4.y.u.T :.t.a.a.R 0.w.5.,.R 5.w.~ ,.,.d.d.t.L R T -.U m ;.2.2.R 2.2.2.;.M B B M 8 [.:X>X  ",
"XXK.  }.}.).Y.P.A.s.s.S.Z.9.Y s.f.C.:.R t.t.R T y.a.y.R a.t.u.,.H ~ 5.5.<.,.f.y.y.L L ;.,.R P ,.2.0.T q.q.q.2.L P R L V +X      ",
"+.      +.b._.U.P.y.y.f.f.9.=.M.f.Z.,.,.t.t.3.3.u.s.a.T s.u.y.5.R t.0.w.9.R d.y.d.L I :.<.Y R 1.1.0.T q.q.q.0.L M P P 0 4X5X;X  ",
"  #. X@X  z.P.A.S.d.t.s.f.8.Q M.B.S.5.8.p.p.3.4.p.B.p.3.p.y.t.5.R 5.5.4.5.L t.1.<.I G T :.Y P 0.1.<.T 0.q.q.0.L m B M 8 -X0X,X  ",
"#.}.<XqX  J.A.S.S.a.u.s.B.7.3.s.s.g.:.5.l.p.3.3.p.f.a.Y u.a.u.8.R w.4.5.5.H ,.,.:.D L T :.T L <.1.<.P <.0.q.0.M m m m 4 ;XrX+X  ",
"|.@X<X8X .J.A.U._.s.9.M.B.7.3.M.s.f.,.4.s.k.3.Y a.N.p.Y t.y.u.:.R r.~ 5.,.D :.,.=.D I Y ;.,.L :.<.<.P <.0.q.1.L L m m 5 6X>X    ",
"@X2X,X%XK.n.A.A._.s.7.B.B.i.=.l.s.B.:.4.l.a.3.W u.f.a.Y 5.y.y.,.U 5.4.4.R S T :.:.D G :.,.:.J R ,.>.M ,.1.<.<.m J m m 1 {.      ",
"K.@X X!.L.b.Y.U.Y.s.7.B.Z.9.Y 7.p.B.3.6.s.u.3.G 9.s.t.T t.y.p.3.U 5.4.~ R S :.Y R D L P :.R L -.<.2.P :.0.<.<.m L L L 1 X.<X;X!.",
"K.|.|.].#.' A.Y.P.a.7.B.B.s.Q 7.a.B.3.7.l.k.8.I i.s.a.T 5.y.i.~ U 5.4.3.Q S T :.:.D L T >.:.L >.,.,.P ;.0.<.<.m P L N 4 #X0X3X,X",
"K.#.K.!.o.h.G.G.P.p.9.B.B.9.I 7.p.B.4.6.i.9.5.U 9.s.p.Y 5.y.y.:.U 4.4.3.Y D :.,.,.J L -.<.,.L <.2.T M ,.0.0.0.D P K D 8 #X3X3X3X",
"$.K.o.$.] z.G.G.U.s.9.M.B.9.Q k.s.B.4.4.u.u.5.W 5.d.t.:.<.y.d.,.H 6.5.3.W D ~ :.:.J Y :.>.>.I >.1.>.K :.1.0.0.M L P D 8 {.3X2X4X",
"  } } o.|.n.D.G.Y.i.k.M.M.9.3.x.l.C.5.4.w.e.w.T u.s.y.:.t.y.s.w.U 6.4.4.3.S Y :.3.G Y :.:.=.L ,.>.>.K Y :.>.2.m L P L 8 {.3X3X3X",
"    [.}.oX^.G.D.G.s.x.N.B.p.3.x.M.A.u.^ w.u.u.T u.a.t.,.y.y.s.w.! 6.4.3.3.G Q Q >.J Y :.:.=.I >.>.>.L L >.>.;.L J L D 9 {.3X3X<X",
"+.}.|.|.[.J.G.D.Y.l.x.C.B.l.h.M.M.A.i.! w.t.4.~ a.a.t.T y.a.d.w.! 4.5.4.3.I Q :.8.b Y :.=.Y L :.>.,.P P >.>.>.L D M J e %.4X2X>X",
"$.}.}.}.|.n.D.V.G.x.v.G.D.N.h.N.V.U.l.:.w.e.e.w.s.N.s.:.y.y.t.<.! 6.5.7.4.I Q Q 3.I U 8.:.P P ,.=.>.:.Y :.2.<.N L J D y %.3X-X-X",
"#.+X[.|.oXJ.`./.`.V.F.G.G.V.6.V.F.U.u.:.w.u.e.u.u.H R Y :.0.y.<.U 4.7.8.3.I Q 4.3.J U :.:.U I ;.>.>.*.Y >.1.0.D D I v < {.3X2XoX",
"  !.XX}.[.J.(.(.'.G.F.G.D.F.j.D.D.G.u.T w.u.u.^ ^ V V 1 0 D P J ! w.8.7.8.I 3.3.8.P U 3.:.Y D :.>.:.P Y <.1.2.m D D b j X.wX*X  ",
"[.W.W.[.|.L.(.`.'.D.V.C.V.V.k.C.V.G.k.3.w.e.p.U ! 5.e.G W <.>.Y ! 7.6.~ Q I 3.3.3.U U 3.:.Y D :.=.,.=.P <.<.0.L J D b h ( |.    ",
":X<XQ.  K.J.`./.`.C.V.Z.B.V.k.V.V.G.u.6.k.5.7.5.u.u.p.8.w.d.d.5.E ^ ! ! Q G 3.3.3.I Y 8.:.T L :.:.-.B T 1.>.,.J b D b j x     ;X",
"+X;X;XK.  F.(./.T.V.c.V.Z.N.j.U.V.V.u.^ u.7.7.4.e.w.u.:.5.0.y.<.! 6.4.4.3.Q 3.3.8.Y Y 9.,.T L T -.-.P U :.;.;.N v M b 0 ] |.  <X",
"oX+X+XOX}.b./.I.T.N.k.N.B.p.e.C.N.V.k.7.k.u.5.^ 6.t.p.3.8.0.y.1.H ^ U I G b =.3.4.P U 8.8.T U =.:.:.P L -.>.>.J y b b 0 f     &X",
"=X|.[.[.$XJ./.I.R.p.7.M.N.e.r.V.p.N.e.^ e.e.8.R 3.a.s.,.5.w.9.:.H 4.Q Q I n 3.3.>.=.U 4.:.:.L ;.;.<.P M >.>.;.J y J b t  .+X  Q.",
"=X$XOX}.$XJ./.D.G.u.7.u.N.7.3.j.7.k.6.^ e.j.8.! 3.5.5.Y 8.9.9.:.H 7.8.8.:.b Y :.:.=.L :.:.T L :.-.;.Y D -.*.*.J y b v 9 { ;X  o.",
"oX8X=X$X1Xn./.D.B.t.6.u.u.7.U 7.3.u.~ Q 7.7.T U 3.8.w.Y 7.u.t.5.F 4.3.:.Y D K :.:.Y I :.,.Y I Y *.;.K M *.*.;.N t y t 9 ] $X#.  ",
"  |.,X=X<Xn./.V.A.p.6.u.9.~ U 6.Q 6.W Q 4.4.Y ! 5.5.w.R ~ w.9.5.G ! :.T Y b =.:.:.Y D :.:.P J =.*.;.K m =.*.=.L b u 9 9 _ oX    ",
"].  $X,X$Xb.D.M.B.a.Y 9.9.Y S Q ~ 6.W W 3.3.U U ! Y 3.H ~ 5.8.3.H U I I I v P =.=.K b Y P L L *.*.:.K u K *.*.p y u 9 4 ( o.   X",
".X  ].8X@Xj.c.p.s.w.! 9.8.Y n U Q 7.W Q Q Y I I Q W 3.G ~ 4.8.:.n 3.=.b b b b *.K K b =.P L J P K -.N u *.K K i t w 3 8 f OX>X  ",
"}.L.  [.oX' z.u.u.T U 8.5.W n I 3.6.n I U Y b v Q W U v G Q 3.3.b b b Q b t y b p *.y U J K b J K K N u K *.*.i 7 t 3 9 c 8XeX,X",
"}.OX    } ..6.~ ,.L H T Q G g G Q Y h I U I b h I v a a n =.:.=.n n =.b =.v s d v K v p u J b b p b u u K b p i 7 i 3 6 ) 2X4X9X",
"[.@X#.   .( H E H l l v k l s k G F g j n j g d j g % O g G b J n n b b v g $ : 4 t 4 v 9 9 t y p i u 6 i t u w 4 2 : : + ] 2X5X",
"}.&X%.  $.; * ; - * * - * % $ = & - & % = * $ $ = $ O o % o 5 I b b b l % + % $ % + % X o % + + @ + # X o # + + X X . . X $ >X2X",
"[. X~.{ #._ W H H n j I G n d I J U G h b v j d k g $ X l n n b v b b n v 5 . 6 p &.t 8 t t 4 6 r p i 3 w i r i : q q 1 = #X,X4X",
"~.1X X  @._ T T 4.I J Y U D 5 Y P Y b v I I U 8 n l s a v b n I v =.p p u 3 1 7 p &.e i p u 0 r p *.N w p *.p p 2 3 7 7 @ 4X5X@X",
"[.XX     .` ! Y ~ G b Y U G 4 J Y Y t h D J G 5 h h j d v b I I v b b b p 7 w p &.*.e u p u 7 i p p p w p p *.p 3 3 7 3 @       ",
"$.K.      / ~ ~ ,.Y D Y Y G < D L Y b 0 b b v , g l h g v S D D v K P p b t u K &.&.M e u p y y p p p i i p i w 2 7 7 4 a o.Q.!.",
" X~.|.$.  E ~ ,.T D L P :.J < D Y P D j J D S < h j j h j S D I n b p y y 2 u K N B u u u u e t p p N r y u i t 3 3 2 4 + %.%X<X",
"XX X|.Q.  _ ~ ,.4.U I Y Y G 5 G L Y D 0 J J v < S S F h v I J I j 9 0 y b 2 u J N B y 0 y y t 2 p p p t t y 7 t 4 2 2 2 , oX=X2X",
"[.[.~.W.  } ~ ~ R S v I L D 8 D G L S y G U n d v S S j v L G I h j v 9 v 4 y b M p 0 0 u y 9 4 b b u 9 4 7 9 2 1 4 2 2 # {.|.|.",
"[.}.}.$.  ] W H R F v G U S 5 U L Y S D Y Y G 8 G U S h n G D D < g v v 9 4 v p b v 8 y 0 > 8 8 9 u t > 2 4 < < > > 1 > # %.{.[.",
"[.}.!.} +.#.` ` | | _ ` _ Z ( ` `  ._ _  .| _ s ` W.H.#. . .] | ( A ..[ _ ( _ ` k ' | [ [ ] _ l ( / _ _ ( A _ Z a s f A x @X@X@X",
"}.!.~.  @.XX}.[.[.K.~. X~.  $. X[.XXQ.[.~.+X>X#.].6X9X9X4X=X;X<XoX  ].9X<X2X9X X  9XeX0X0X0X;X   X;X<X X+X1X X  [.>X    o.$X>X!.",
"].W.$.    !.~.#.$. .W.!.#.    W.XX}.  L.}.XX@X[.  *X2X2X;X@X:X$X      |.@X|.oX    2X0XwX9X2X      L.$X%X@X X    |.OX      { ].@."
};
