/* XPM */
static char *_8b5df4c50b04fafe030fa13d45a1e198e5WHUPL5p0E9Bp4[] = {
/* columns rows colors chars-per-pixel */
"64 64 193 2 ",
"   c None",
".  c #0D1210",
"X  c #1B1511",
"o  c #1C1916",
"O  c #1E1D1D",
"+  c #151E1F",
"@  c #341D0F",
"#  c #2D1D14",
"$  c #221D19",
"%  c #2B1E18",
"&  c #341E12",
"*  c #3A1F11",
"=  c #2D211B",
"-  c #23201E",
";  c #352216",
":  c #3B2213",
">  c #35241A",
",  c #3B261A",
"<  c #3E2A1C",
"1  c #2B2622",
"2  c #2E2925",
"3  c #272523",
"4  c #302520",
"5  c #352A24",
"6  c #3C2E24",
"7  c #332E2A",
"8  c #382F28",
"9  c #34322F",
"0  c #3D332C",
"q  c #3D3936",
"w  c #442614",
"e  c #492713",
"r  c #452916",
"t  c #4C2B15",
"y  c #40271A",
"u  c #432B1C",
"i  c #4B2E1C",
"p  c #542E15",
"a  c #592F14",
"s  c #522F19",
"d  c #4E311E",
"f  c #563016",
"g  c #5C3216",
"h  c #54321C",
"j  c #5C351A",
"k  c #5E381D",
"l  c #633616",
"z  c #663817",
"x  c #6B3A17",
"c  c #623619",
"v  c #643A1B",
"b  c #6B3D1B",
"n  c #693715",
"m  c #713E1A",
"M  c #432E22",
"N  c #443124",
"B  c #4B3323",
"V  c #4F3826",
"C  c #43332A",
"Z  c #4A3A2E",
"A  c #48382C",
"S  c #523522",
"D  c #593721",
"F  c #553826",
"G  c #5C3B24",
"H  c #553C29",
"J  c #5D3E29",
"K  c #443C35",
"L  c #4C3E34",
"P  c #443E39",
"I  c #503F33",
"U  c #633D23",
"Y  c #693E21",
"T  c #623F28",
"R  c #6D411E",
"E  c #74421C",
"W  c #7A451C",
"Q  c #7C491E",
"!  c #57402E",
"~  c #5C422C",
"^  c #4B423A",
"/  c #5C4635",
"(  c #664126",
")  c #6D4324",
"_  c #63442C",
"`  c #6C452A",
"'  c #6E492C",
"]  c #724623",
"[  c #7A4620",
"{  c #754925",
"}  c #7B4B24",
"|  c #714728",
" . c #744B2B",
".. c #7A4E2B",
"X. c #7D5027",
"o. c #77502E",
"O. c #7D512D",
"+. c #664930",
"@. c #6C4D33",
"#. c #734E31",
"$. c #794D30",
"%. c #745134",
"&. c #7D5332",
"*. c #7E5834",
"=. c #7A5639",
"-. c #7E5B3C",
";. c #77563D",
":. c #414240",
">. c #745840",
",. c #824B1E",
"<. c #814E24",
"1. c #834F28",
"2. c #845126",
"3. c #8A5526",
"4. c #83542C",
"5. c #89562A",
"6. c #86582E",
"7. c #8B592C",
"8. c #905927",
"9. c #925D2C",
"0. c #985F29",
"q. c #835632",
"w. c #885731",
"e. c #855934",
"r. c #8B5D33",
"t. c #845C3A",
"y. c #8A5E39",
"u. c #925F32",
"i. c #95602E",
"p. c #9A622D",
"a. c #8E6035",
"s. c #87603E",
"d. c #8D613A",
"f. c #936235",
"g. c #9B6535",
"h. c #9D6936",
"j. c #93643B",
"k. c #996639",
"l. c #97683F",
"z. c #9C693C",
"x. c #A36A36",
"c. c #A36D3C",
"v. c #A5703E",
"b. c #A9713E",
"n. c #846043",
"m. c #8A6342",
"M. c #8D6846",
"N. c #916642",
"B. c #956942",
"V. c #9B6C43",
"C. c #946C4A",
"Z. c #9D6F48",
"A. c #9F7047",
"S. c #9C714B",
"D. c #916E51",
"F. c #947255",
"G. c #9A7353",
"H. c #997558",
"J. c #99775A",
"K. c #A36F41",
"L. c #A47144",
"P. c #AB7443",
"I. c #AE7946",
"U. c #A4754B",
"Y. c #AC7749",
"T. c #AC7B4D",
"R. c #A3784E",
"E. c #B07744",
"W. c #B47B45",
"Q. c #B27D4C",
"!. c #BA7E45",
"~. c #A67951",
"^. c #AC7D52",
"/. c #A37A56",
"(. c #B17E51",
"). c #B5814E",
"_. c #BB834D",
"`. c #AD835A",
"'. c #B38153",
"]. c #BA8552",
"[. c #BE8955",
"{. c #BD8C5B",
"}. c #B4885D",
"|. c #B18863",
" X c #BC8F62",
".X c #BB9067",
"XX c #BE946B",
"oX c #C08A56",
"OX c #CA9256",
"+X c #C29361",
"@X c #C1966A",
"#X c #CB9E6C",
"$X c #CFA372",
/* pixels */
"                                                                                                                                ",
"                                                      f s t j t w                                                               ",
"                                              f s p x m b f p g g g t e p p                                                     ",
"                                        s g b m n a m m W g g l g l g p l z f : e                                               ",
"                                  v v W n n m m n g m E W c l n l z f g x x l t g g p w                                         ",
"                              Y b Q E } x l W E m z m W Q v v b z z g z E x l t g g g p g p r                                   ",
"                          b <.2.v E Q ,.E x W W m z E W Q R c b x R j z W E n p g g z f l z l e w                               ",
"                      G Y W 2.3.R Q X.Q R E ,.Q W n m E W R v b R R z R E E E g l g x l x x n l g g                             ",
"                  ' O.` v { 5.5.E } <.4.) E 2.} Q b E Q E R R E R E R R Q Q } j R j R l R R R a g R n p                         ",
"                 .w.w.| U X.7.7.` X.X.6.] | 3.X.} R } X.X.R R E R E z R X.Q E j R j R l R E E R z E n n g                       ",
"              o.q.r.a. .` 4.r.7.] O.4.6.) { 7.6.X.| X.X.X.] R { E { R R X.Q } k R R R l R E Q E n E E E x f e                   ",
"            l.j.r.f.j.&. .r.f.f. .O.6.7.| { i.7.} | X.2.6.{ ) o.o. .R R X.X.{ v R ] E z R E Q ] R W E E R j x                   ",
"          B.T.l.a.j.j.&.o.a.f.a. .4.O.r.{  .7.6...] 4.4.7.{ ) X. .{ { ) O.X.} v R ] Q R R E E Q R E E E R l R j                 ",
"        m.'.).z.d.d.l.q.*.j.j.a.o.q.q.a.O.O.a.q.X.' 4.4.6. .{ O.X.O.X.{ 7.6.*.R { Q { { R Q Q Q R E Q Q E j E R t               ",
"        C.).).B.B.Z.Z.t.t.l.j.B.' e.e.a.X.&.f.7.O.` &.4.6.X.o.O. .X.o.) 7.3.O.) X.X.X.{ { X.X.{ E X.Q Q Q R R v k               ",
"        T.~.'.B.B.Z.U.t.=.N.l.B.%.e.s.d.O.*.j.7.O.' t.e.a.{ o.X.X.&. .R r.*.X.) X.X.X.X.{ X.X.3.} X.X.X.X.R E R R r             ",
"      S.`.).T.B.Z.U.Z.t.t.C.B.l.#.t.a.d.&.&.f.r._ ~ j.j.h.&.o.r.&.X.{ B ~ o.X.R X.*.6.*.R 6.2.X.} X.3.8.X.R Q R E r             ",
"      >.C.C.D.-.n.N.n.@.#.n.y.t.~ #.&.%.J T &.' B - *.a.a.a.X.*. .~ V C C ' ' ~ R R { R k ) R R h k R R k i f d d ;             ",
"      :.q q q ^ L P ^ P K L L I q A A C 0 C C 0 7 < ! V *.a.o.O._ N 6 u N 6 u 6 > < < > > < , , ; < < : @ # = # # # X           ",
"      n.G.S.G.s.m.C.C.=.#.d.y.l.| e.j.e.'  .e.*./ 7 a.h.l.e.*.*. . .X.0 , o.o.R R { X.R R X.X.Q z Q X.X.X.z R R R :             ",
"      ^.{.'.`.A.Z.P.K.t.O.k.x.c.O.a.z.f.o.O.a.O._ ( e.a.j.e.&.e.e.&.&.` ` { X.R { X.X.E ) 3.3.7.{ X.3.p.9.{ { E E d             ",
"      `.oX).'.z.j.c.c.O...u.j.k.X.6.f.g.X...r.7.O.{ 6.r.j.e.o.a.r.e.4. .a.r.r.(  .X.3.{ { 3.9.9.Q 8.0.8.X.Q X.{ ] d             ",
"      ~.].T.I.k.f.c.K.w...j.g.x.X.w.g.g.4.X.f.r.r.{ 7.r.f.6.O.a.d.a.6.*.x.h.u.| X.O.X.X.Q 3.3.p.Q 3.0.3.Q E X.Q E f             ",
"      ~.[.).I.c.z.P.E.u.X.f.c.Y.4.w.f.f.O.4.f.h.h.o.f.u.a.*.o.r.a.4.4.6.x.h.f.{ o.X.3.o.E 3.8.i.X.8.9.0.8.E X.Q ] f             ",
"      ~.[.)._.c.z.P.P.j.4.k.L.Y.O.O.f.d.X.&.f.x.j...h.f.f.7. .4.e.r.6.6.b.h.h.{ | 4.6.X.{ 5.7.i.3.i.h.p.9.Q { X.} j             ",
"      C.oX'._.z.g.b.b.u.$.K.P.E.q.w.k.f.&.&.g.c.z.O.x.j.k.r.o.f.i.f.u.o.h.h.h.{ { O.6.X.X.u.9.i.X.p.p.p.9.{ E { Q j             ",
"      B.].W.W.g.u.c.b.r.1.K.P.E.r.e.z.z.e.e.k.P.z.4.z.k.f.e.O.a.a.6.7. .f.7.8.] | O.4.X.{ i.u.7.X.i.i.p.i.E ] E R f             ",
"      B.W.W.!.z.u.c.P.y.w.c.c.c.6.r.z.z.w.q.z.v.z.O.k.g.z.q.%.a.e.e.a.{ 6.6.4.] | X.4.X.{ 7.9.7.X.r.i.p.i.{ ] R R f             ",
"      N.Q.)._.c.y.P.P.y.w.c.c.P.6.e.c.z.q.&.k.P.j.O.a.k.j.4. .e.w.e.4.| 4.6.4.) | X.6.6.{ 4.7.3.{ 6.i.i.9.{ R R R d             ",
"      m.Q.).OXK.y.P.Y.k.q.u.c.P.w.*.z.z.*. .f.P.z. .u.g.k.w. .a.e.w.&.T O.4.1.) | O.5.4.] X.7.5.Q 3.u.9.a.R R R E i             ",
"      S.].Q.oXz.y.P.P.k.$.y.c.E.4.y.z.j.&.' u.c.f.O.u.k.z.q. .r.w.&. .T 4...$.` { X.4.X.{ 4.6.i.X.4.9.7.7.R { E R t             ",
"      n.(.]._.k.y.P.P.u.$.w.k.P.q.t.V.k.w.' f.b.z.X.r.g.g.&.' a.w.&...` 4.1.4.) { X.6.4.] 6.5.3.{ 3.i.7.7.R X.} E d             ",
"      n.(.(.Q.V.u.K.P.z. .y.V.P.w.t.z.j.r. .f.x.g.O.7.i.z.&. .r.e.q. .' 4.6.5.| { 4.5.7. .5.5.4.[ 4.i.9.9.R } { E s             ",
"      D.(.(.!.K.j.K.P.u.$.y.c.Y.e.e.l.f.e...r.h.f.4.f.g.x.q.' e.e.q. .( $.6.4.| ..4.5.5.{ 7.9.5.[ 4.7.9.p.] { } R h             ",
"      n.T.Q.(.K.j.K.K.u.q.B.V.Y.r.t.a.j.r.O.f.c.h.4.f.f.c.a. .s.a.e.&.` ..$.1.] ..4.4.<.] 5.4.5.{ } 7.5.9.E ] } [ h             ",
"      G.(.(.(.k.l.L.P.B.q.K.K.Q.u.=.r.j.j.&.f.z.j.6.g.g.x.f.%.t.e.q.q.) $.1.w.) ..4.4...{ 6.5.5.{ | 5.5.3.] ] ] ) j             ",
"      F.(./.}.K.Z.(.Y.l.t.L.L.(.B.=.w.j.e.*.j.z.f.4.g.g.x.a.=.e.e.q.w.' $.$.w.] ..4.1... .5.5.3.} } 5.5.5.] ] ] | k             ",
"      G.(.~.].V.Z.(.(.Z.t.K.U.(.B.O.r.l.a.a.v.v.z.4.f.g.f.7.o.e.y.e.q.| $.q.q.|  .4.q.....5.1.3.4.X.5.9.9.{ { ] ) v             ",
"      H.}.{.@X/.U.(.(./.s.U.~.].z.4.r.l.d.k.j.' O. .4.f.g.7.#.t.y.r.q.| ..&.w.| | w.1...| 5.5.4.X.} 7.9.9.) ] ] v i             ",
"      F.@X X#X(./.Y.(.U.N.~.^.(.j.O.r.j.j.*.-.~ ~ t j ] X.| %.a.e.r.r. .&.w.w.{ | w.q. .) 1.5.6.{ X.7.9.9.R ) ) Y k             ",
"      J.XX@X$X`.U.Q.Y.U.N.~.U.'.d.q.r.a.B.#.#.r.d.` X.6.5. .%.t.t.q.$.| q.q.q. . .6.4...) 4.4.6.X.} 7.7.9.] ) Y Y k             ",
"      J.@X.X+X^.~.Y.Y.U.N.~.U.(.j.t.B.r.a.r.j.j.z.w.r.h.c.7.@.=.$.%.$.| q.q.w. ...w.4...] 4.1.<.} X.i.3.5.[ ) ) Y k             ",
"      /. X{.{.U.Z.U.Y.K.N.(.L.~.N.q.j.y.d.e.d.a.f.q.w.g.x.7.%.t.q.q.e. .$.w.w.....r.6.1.] 4.4.<.} { 4.6.3.] Y ) Y k             ",
"      H.|.`.{.A.B.L.Y.V.e.(.L.U.B.t.N.j.r.q.t.a.z.6.w.f.p.9.' =.#.' ' ` $.4.w... .w.4.q. .1.1.4.X.] 2.3.8.) Y b v k             ",
"      H.|.`.{.z.y.K.L.y.y.U.B.L.y.t.j.j.t.o.e.z.x.4.r.r.u.q.' q.$.$.#.Y q.4.e.1.| w.4.4. .5.5.7.} ] 6.8.5.] v ] Y k :           ",
"      G.|.`.).d.y.k.K.y.t.N.e.B.t.=.y.m.e.o.*.w.a.X.e.a.f.4.' y.r.e.4.Y $.1.1.1. .4.4.O.{ 4.2.5.} E 2.X.<.] v b v k :           ",
"      D.`.'.I.a.y.N.j.e. .t.q.d.%.=.y.y.O.#.q.e.a. .e.f.f.r.` e.q.4...Y [ 1.w.1.| 4.6.X.| X.<.3.} R 2.} 3.[ v v v h :           ",
"      D.`.U.).z.e.y.u.q.| t.&.y.#...e.e...#.r.r.f.o.*.r.f.r.' $.......Y 1.4.4...) X.4.} ] 2.} 3.[ E <.<.1.[ v b j j &           ",
"      C.^.K.P.z.O.f.r. .` $.$.e.' $.q.q. .| $. .w.| q.e.w.4.'  .$.Y $.Y } 1.1.[ U ..[ | [ 1.<.1.Q b } <.<.m v b a j &           ",
"      m.A.z.x.r. .r.r.$.U #.=.y.#.$.$. .| | $.$.&.` &.w.w.q.'  .$.$.Y Y Y [ } ] Y 1.....| m <.1.Q b [ [ <.z g z a f *           ",
"      ;.C.j.j.q...r.r. .T ' q.q.T $. . .T T $.|  .U ` ..w.4.Y | Y m Y Y Y Y m [ v [ } [ Y ] m 1.E b <.[ <.b g n g j &           ",
"      =.y.&.4.] ' O.$.` S | .. .D Y ..| Y U | T M M ` ..4...D U [ $.m D B h z <.U ) Y m Y m [ b m v [ E m z a v a s *           ",
"      ! @._ +.J F T J F M J ' +.F J T J S B J S 5 O S Y ` | G U $.Y Y B 1 y s l h U g h U Y b Y v g v v v l t p e w & .         ",
"      9 9 9 9 7 7 8 8 5 2 5 8 C 8 5 5 5 3 2 5 1 $ 4 4 4 B | T Y Y B 5 5 5 1 4 5 5 = > > % > & * > % % ; > > $ $ o o $ X         ",
"      ~ #.' ' T T | ` T B Y Y $.Y D Y U G M J S 7 o F T U Y U  .Y Y Y i + j m ,.j f k l a j x x n a n v x g e e e w #           ",
"      +.&...w. .Y ..| Y h ....1.Y U |  .| h ( F C M U Y Y | U [ m b b a e a m ,.v b m v g x W ,.W l b W [ m a a j a *           ",
"      +.O.o.O.` Y $.} ) s | ....v D ) | ) i D D G B U ) ` ] G ) Y Y m a c m <.,.z b b x k v m m m l m W ,.m g a a a :           ",
"      ~ O.*.e.X.Y 1...' i (  ...U k Y Y U u S F G h ( ( ) ` U } <.m b l b [ ,.<.E x m m v z m m m n z m x n p g a p &           ",
"      _ &.4.O.`  .<...| i ' } ..T v ] ] ( i D G G D k ( ` ] G ) Y Y c s x <.m <.b v R b v l m ] W x v x v l p g p s &           ",
"      ~ *.4.w.| | ....] i ] | } Y k | ` ( B J ) _ D U | ) ] k k c Y c s x m W ,.b j x c l a b b m l l v l g s s p p :           ",
"      ! &.O.O.( v | | ) h ) )  .( v ' ] ( d U ( ( h G { ) ` k k k k k s c Y m m j c v c g s b v z a p j p f t t p s :           ",
"      H %. .#.` U '  .` i | | ..( ) ....) d ` ' ( G ( | ) ` i B U U k s U m Y Y h v v i d g j b v t s s i i t e t i ;           ",
"        ! ~ +.~ F _ H H B _ _ +.G _ @.+.! N _ _ H V B B B F < B k h S u s G F T d h B i i u d G G S B B d d y u < y ;           ",
"                                                                                                                                "
};
