/* XPM */
static char *_1fc0975e8494040a8b6ce0af7339c3apkyrMVOJIN2veuXT[] = {
/* columns rows colors chars-per-pixel */
"64 64 194 2 ",
"   c None",
".  c #010001",
"X  c #090304",
"o  c #00000D",
"O  c #00080C",
"+  c #110F0D",
"@  c #1E1700",
"#  c #000015",
"$  c #0E0E14",
"%  c #05031B",
"&  c #120812",
"*  c #00101E",
"=  c #141414",
"-  c #1B161C",
";  c #171A1B",
":  c #1C1D1B",
">  c #1B1713",
",  c #2C0F18",
"<  c #351404",
"1  c #21231D",
"2  c #2A231E",
"3  c #3E3116",
"4  c #000624",
"5  c #0D1B2B",
"6  c #0F1621",
"7  c #1C1D22",
"8  c #161829",
"9  c #000739",
"0  c #001731",
"q  c #09183E",
"w  c #1E232A",
"e  c #1C2327",
"r  c #1A283C",
"t  c #08243E",
"y  c #242523",
"u  c #292421",
"i  c #252B23",
"p  c #292A27",
"a  c #22252C",
"s  c #2C2D2B",
"d  c #26292B",
"f  c #273325",
"g  c #2A362A",
"h  c #34342E",
"j  c #242A35",
"k  c #2A2B35",
"l  c #262D3D",
"z  c #292F3A",
"x  c #202533",
"c  c #312933",
"v  c #2D343C",
"b  c #3B3735",
"n  c #3A3937",
"m  c #34363D",
"M  c #39333B",
"N  c #3C3D3C",
"B  c #333937",
"V  c #590F15",
"C  c #7E130C",
"Z  c #42231E",
"A  c #41392E",
"S  c #423D35",
"D  c #294827",
"F  c #344334",
"G  c #364B38",
"H  c #394A3A",
"J  c #3D523B",
"K  c #3A5837",
"L  c #42413D",
"P  c #534632",
"I  c #564D3C",
"U  c #405A3D",
"Y  c #5B513E",
"T  c #72623F",
"R  c #001D4E",
"E  c #07294B",
"W  c #1B2B46",
"Q  c #182844",
"!  c #002952",
"~  c #293448",
"^  c #333B4A",
"/  c #2C3A56",
"(  c #283757",
")  c #353E52",
"_  c #3E4144",
"`  c #384359",
"'  c #3A4862",
"]  c #454445",
"[  c #46474C",
"{  c #4C4D4A",
"}  c #474A49",
"|  c #524F47",
" . c #445744",
".. c #445C43",
"X. c #4F504A",
"o. c #59544A",
"O. c #555552",
"+. c #5C5D5B",
"@. c #585855",
"#. c #665C47",
"$. c #625E5C",
"%. c #4A6549",
"&. c #4E6C4C",
"*. c #476245",
"=. c #506F4E",
"-. c #51724F",
";. c #536E50",
":. c #527351",
">. c #6D6046",
",. c #73664C",
"<. c #7A6946",
"1. c #63625E",
"2. c #736955",
"3. c #5B5D61",
"4. c #656563",
"5. c #6B6C6A",
"6. c #656569",
"7. c #706F6B",
"8. c #72726D",
"9. c #6D7371",
"0. c #767774",
"q. c #7B7B75",
"w. c #75797A",
"e. c #7C7D7C",
"r. c #787777",
"t. c #861F1E",
"y. c #816C34",
"u. c #80714E",
"i. c #817250",
"p. c #8A7A59",
"a. c #8C7F61",
"s. c #867A76",
"d. c #7D807E",
"f. c #9B8B67",
"g. c #82817B",
"h. c #89897E",
"j. c #9B927C",
"k. c #938875",
"l. c #A48E68",
"z. c #AA9466",
"x. c #A29379",
"c. c #B59E68",
"v. c #BAA375",
"b. c #C5AB78",
"n. c #E5C57E",
"m. c #7A7E80",
"M. c #7D8384",
"N. c #848482",
"B. c #888785",
"V. c #8C8C86",
"C. c #8D8D8A",
"Z. c #878888",
"A. c #93938E",
"S. c #8D9191",
"D. c #969691",
"F. c #989790",
"G. c #9C9B96",
"H. c #9D9E9B",
"J. c #A69994",
"K. c #A5A39D",
"L. c #A4A4A2",
"P. c #ABABA3",
"I. c #ADADAD",
"U. c #B0AFA7",
"Y. c #B5B3AC",
"T. c #B9B8AF",
"R. c #B6B6B5",
"E. c #B8B7B1",
"W. c #BCBBB3",
"Q. c #BCBCBB",
"!. c #B7B8B8",
"~. c #D6BC86",
"^. c #C2BEB6",
"/. c #CFBDB7",
"(. c #DFC58A",
"). c #EDD191",
"_. c #FFDD99",
"`. c #FDDA92",
"'. c #EECD85",
"]. c #FFE49D",
"[. c #C5C4BB",
"{. c #C8C7BE",
"}. c #CAC8BE",
"|. c #C1C0B7",
" X c #BDC0C1",
".X c #C3C3C3",
"XX c #CAC9C1",
"oX c #CECDC5",
"OX c #CECECE",
"+X c #D2D2CD",
"@X c #D4D4D4",
"#X c #D7D9D5",
"$X c #DFE0D8",
"%X c #FAFAF7",
/* pixels */
"                                                                                                                                ",
"                                                                                                                                ",
"                                                                                                                                ",
"                                                                                                                                ",
"                                                                                                                                ",
"                                                                                                                                ",
"                                                                                                                                ",
"                                                                                                                                ",
"                                                                                                                                ",
"                                                                                                                                ",
"                                                                                                                                ",
"                                                                                                                                ",
"                                                                                                                                ",
"                                                                                                                                ",
"                                                                                                                                ",
"                                                                                                                                ",
"                                                          : X   O.@.7.g.+.> p L                                                 ",
"                                                        O.b . 7.K.W.}.P.O.O.0.A.0.                                              ",
"                                                $     0.P.1.H.[.{.XXE.A.K.W.|.oXK..                                             ",
"                                              $ y   $.^.W.P.{.{.{.{.E.T.[.}.[.oXK..                                             ",
"                                              ] | 7 J.oXW.{.}.[.[.[.[.{.}.[.|.XXG..                                             ",
"                                              1.r.;.E.E.U.}.[.[.[.[.{.[.[.[.[.oXF.n                                             ",
"                                              e.A.C.P.F.K.{.[.[.[.[.[.[.[.[.|.{.F.q.                                            ",
"                                            > V.F.F.A.V.W.[.|.[.[.[.[.[.[.[.[.[.E.F.                                            ",
"                                            n A.A.A.C.G.{.XX}.XX{.XX{.{.[.[.[.[.}.g..                                           ",
"                                            y A.G.G.C.K.[.|.^.[.|.P.}.}.[.[.[.[.{.e.=                                           ",
"                                        p +.$.F.C.N.8.s.C.B.g.V.d.1.Y.K.{.[.[.[.XXF.=                                           ",
"                                        1 r.C.B.5.{ v r 0 . p 0.O.= 7.X.T.[.[.[.{.A.                                            ",
"                                          4.N.{ % 0 ~ ( / a d.+XY.1.O ] F.K.Y.[.L..                                             ",
"                                          : p r ^ ) ` ' ` N h.$X[.O.8.E.d.1 g.G.8.                                              ",
"                                            x ~ r Q E ` W 4 X.V.d.H q.|.L.. [ @.L {                                             ",
"                                            4 ^ v L Y o P P X L M 6 B 0.N.o / j + Z.Q.                                          ",
"                                          A Y m 4.,.i.+.2.>.> T l.p.,.3 h h ) l =   .XI.                                        ",
"                                          Y l.| 0.<.k. X0.#.0.f.).(.(.<.= I j j [   L. X                                        ",
"                                          I b.2.] T J.%X+.m  Xj.'.].].a.$.P h @ 5.9.Z. XI.                                      ",
"                                          > v.f.A b.x.%X^.G.#Xx.`.].n.A.J.C 1..   M.w.L..XQ.                                    ",
"                                            ,.#.2 z.<.C.E.E.F.c.].].n.L./.t.| a   w.S.I.!..X                                    ",
"                                                > Y m 0 7.e.m i.z.v.z.q.^.s.p M m.e.H.!.I.@X#X                                  ",
"                                                + . E r # . q ! 9 Q ] k h.9.X   M.e.S.R.I.R.OX                                  ",
"                                          ; a y ; 2 Z M ^ ` ` ) ( ! R W . . >               I.                                  ",
"                                          w ) z e k V < G J w 8 B B m ~ _ h           O.] .                                     ",
"                                          a ` ~ 7 k , F .. .U K ..i l 1 =       e.m.d.6.]                                       ",
"                                          7 l w 7 7 g ..F h *.-.F i l a #     r.N.5.@.[                                         ",
"                                                    G ..p - *.:.y y 7 6 #.<.j 5.3.N :                                           ",
"                                                    J ..B s &.&.p 1 p $ 2.p.5 b .                                               ",
"                                                  & H ....J ;.;.J g S d ~ 8                                                     ",
"                                                  : F J K ..%.%.&.F n s * 6                                                     ",
"                                                    f g  . .D D U g                                                             ",
"                                                    = } w.B } H i i                                                             ",
"                                                      ] 6.- 6.N.%                                                               ",
"                                                      1 O . 3.C.-                                                               ",
"                                                          7 . .                                                                 ",
"                                                                                                                                ",
"                                                                                                                                ",
"                                                                                                                                ",
"                                                                                                                                ",
"                                                                                                                                ",
"                                                                                                                                ",
"                                                                                                                                ",
"                                                                                                                                ",
"                                                                                                                                ",
"                                                                                                                                ",
"                                                                                                                                ",
"                                                                                                                                "
};
