/* XPM */
static char *_efe39733e07420af8ead67a9cb4f80azEoYN6jvbD1THVZl[] = {
/* columns rows colors chars-per-pixel */
"64 64 202 2 ",
"   c None",
".  c #150E0B",
"X  c #13120E",
"o  c #191A1B",
"O  c #060716",
"+  c #2C251C",
"@  c #071527",
"#  c #1B1C23",
"$  c #161C2C",
"%  c #0A1A35",
"&  c #0B0F20",
"*  c #1F2A36",
"=  c #232422",
"-  c #292A26",
";  c #2B2B2B",
":  c #23252A",
">  c #372B2A",
",  c #2B382A",
"<  c #35352E",
"1  c #242933",
"2  c #242B3B",
"3  c #2C2D35",
"4  c #2D3338",
"5  c #353636",
"6  c #323C32",
"7  c #32363D",
"8  c #3B3C3C",
"9  c #3A3B37",
"0  c #47171B",
"q  c #453B32",
"w  c #772821",
"e  c #3A4D3A",
"r  c #354635",
"t  c #3E513D",
"y  c #3C553A",
"u  c #294428",
"i  c #44423C",
"p  c #4F493E",
"a  c #4E4736",
"s  c #574B36",
"d  c #63573F",
"f  c #72633B",
"g  c #051746",
"h  c #182A47",
"j  c #132C4D",
"k  c #262D41",
"l  c #283346",
"z  c #363943",
"x  c #333642",
"c  c #2B3954",
"v  c #353F55",
"b  c #443D42",
"n  c #3C454C",
"m  c #3C4963",
"M  c #424342",
"N  c #43454C",
"B  c #4C4B4B",
"V  c #474947",
"C  c #534E4B",
"Z  c #445D43",
"A  c #425643",
"S  c #51504E",
"D  c #4B4D51",
"F  c #4E5255",
"G  c #555453",
"H  c #5B5C5B",
"J  c #565756",
"K  c #655D4E",
"L  c #6B5D43",
"P  c #615C57",
"I  c #496647",
"U  c #537251",
"Y  c #6D634C",
"T  c #6A6255",
"R  c #6C665A",
"E  c #6E695D",
"W  c #62615E",
"Q  c #716A5D",
"!  c #776B53",
"~  c #7B7058",
"^  c #5C5D61",
"/  c #5B5660",
"(  c #625F60",
")  c #646463",
"_  c #6B6A65",
"`  c #6D6D6B",
"'  c #666769",
"]  c #746D62",
"[  c #766D69",
"{  c #767166",
"}  c #797366",
"|  c #74726B",
" . c #7A756B",
".. c #7D796E",
"X. c #6D6E72",
"o. c #757474",
"O. c #797673",
"+. c #7E7A73",
"@. c #7B7C7B",
"#. c #6E7073",
"$. c #802C2A",
"%. c #847457",
"&. c #817B6E",
"*. c #8B7E62",
"=. c #817C74",
"-. c #837F7A",
";. c #9D885B",
":. c #A48F5F",
">. c #9D8B65",
",. c #858176",
"<. c #86827A",
"1. c #89857D",
"2. c #8C887F",
"3. c #97917F",
"4. c #A18D6A",
"5. c #BCA676",
"6. c #C5AC78",
"7. c #D1B67D",
"8. c #7A7C83",
"9. c #7D8081",
"0. c #848381",
"q. c #8A8681",
"w. c #8D8A83",
"e. c #8D8B8A",
"r. c #85888A",
"t. c #918D85",
"y. c #918E8A",
"u. c #9C8583",
"i. c #939087",
"p. c #94928D",
"a. c #99958D",
"s. c #9C988F",
"d. c #9D9785",
"f. c #8C8D90",
"g. c #8E9193",
"h. c #959492",
"j. c #999693",
"k. c #9C9995",
"l. c #959699",
"z. c #9D9B9B",
"x. c #98999B",
"c. c #A19E9D",
"v. c #A09C95",
"b. c #AB9C81",
"n. c #9EA095",
"m. c #A3A19D",
"M. c #A8A59C",
"N. c #9C9DA2",
"B. c #A29FA0",
"V. c #9EA1A4",
"C. c #A4A3A3",
"Z. c #A9A6A5",
"A. c #ACABA6",
"S. c #A6A6A9",
"D. c #A9A7A9",
"F. c #A7A8AB",
"G. c #ABABAC",
"H. c #B0AEAE",
"J. c #B0AFA6",
"K. c #B4B2AC",
"L. c #B8B7AE",
"P. c #ADAEB1",
"I. c #B0AFB1",
"U. c #AEB1B4",
"Y. c #B2B3B5",
"T. c #BCBBB4",
"R. c #B4B6BA",
"E. c #B6B9BD",
"W. c #B9BABE",
"Q. c #B9BABD",
"!. c #B9B7B7",
"~. c #D4BA82",
"^. c #C3B7B2",
"/. c #F0D087",
"(. c #FDE49C",
"). c #C5C4BB",
"_. c #C8C7BE",
"`. c #C9C8BE",
"'. c #BBBDC2",
"]. c #BEC0C6",
"[. c #BEC0C5",
"{. c #BFC2C8",
"}. c #C1C2C5",
"|. c #CAC9C1",
" X c #C0C2C8",
".X c #C2C5CA",
"XX c #C5C7CE",
"oX c #C2C4CA",
"OX c #C6C9CE",
"+X c #C9CACE",
"@X c #C9C7C1",
"#X c #D1D1CC",
"$X c #C7C9D1",
"%X c #CACCD3",
"&X c #CED0D6",
"*X c #CFD1D8",
"=X c #D2D4DB",
"-X c #D4D6DB",
";X c #DBDDE3",
":X c #D7D9E0",
">X c #DEE0E6",
",X c #E7E8E8",
/* pixels */
"1.G.Z.D.j.D.W.C.t.Q   m.U.U.R.U.    E.G.C.h.  h.D.G.E.W.'.'.XX].'.  Y.    G. X.XB.    <.Y.P.Y.R.G.z.B.k.t.y.  =.a.w.w.t.w.y.1.  ",
"  q.G.Q.Y.Q.Q.1.      G.C.U.R.%XC.'.$XQ.R.R.  A.Q.Q.E.E.Y. XXX&XF.G.;X  j.%XoX{.XX-.  j.S.P.C.S.C.C.C.C.j.q.  ,.z.a.t.p.a.a. .  ",
"      1.1.e.+.  XX}.R.P.W.P.U.{.Z.[.[.P.].C.  q.k.D.I.XX.Xz.<.y.  V.].  G.$XXXoXXXw.  h.Q.Q.G.C.c.c.B.B.c...  w.c.j.k.c.q.      ",
"  c.D.  E.    R.=X.XR.G.F.G.R.%Xk.G.R.W.E.    '.      x.q.        C.R.  '.oX'. XoXw.    C.C.z.S.C.C.Z.E.A.    1.A.Z.c.w.        ",
"p.G.P.R.}.P.  .XR.U.[.U.z.[.}.C.  m.].D.+.  {.{.].        XXXXXXoX    j.oX'.'.{.'.k.    y.            C.      e.k.c.    K { =.  ",
"=.m.C.P.'.B.y.Y.G.'.[.R.  z.m.    j.e.+.[.$X{.W.%XD.    $X%X$XXX=X{.  j.{. X{.'.oXI.  j.G.j.j.j.1.      z.q.R       ] t.a.1.2.R ",
"  k.D.I.'.C.y.'.R.E.[.XX    p.C.G.    U.XX[.U.R.'.Y.  G.%X XoXoX X=XN.h.XXXXoX XXXE.  j.D.c.a.j.v.    D.E.m.=.1.    2.k.y.=.2...",
"  h.D.C.D.B.q.P.U.'.].XXh.  P.C.A.i.  W.R.U.R.R.U.C.  C.$XXX'.Y.XX%XG.F.$X'.oX X$XP.  j.c.k.y.p.k.  q.Y.C.m.h.m.   .,. .Q =.1.  ",
"t.=.G.v.G.y.  C.C.G.W.}.w.j.Y.j.t...w.D.E.R.U.U.G.p.  p.XX=X.XU.R.=Xx.G.*X XoX'.$XS.  B.S.B.z.C.Y.  q.}.G.D.p.k.<.  k.k.y.E     ",
"    =.k.t.    t.C.C.G.q.    J.a.1. .  k.Z.U.U.R.P.<.      S.U.R.-.h.  h.$XoX X'.$XF.  C.G.k.D.Q.w.    k.Y.G.y.a.    k.k.=.  w.Z.",
"  c.            { E {   z.    <.,.]   <.m.D.Z.D.C.    G.C.          .X  Y.XXXXXXXXC.  p.D.P.'.p.          m.Y.1.  w.        v.c.",
"  Y.I.  k.Y.c.t.  F.U.Z.G.A.            ..k.m.C.Q   %X%X%XXXy.  D.].:XY.j.*X X'.%Xj.    H.W.    y.G.}.p.        y.y.  G.w.  k.c.",
"=.C.'.x.t.p.=.1.,.!.k.p.k.a.1.  z.Z.Q.Y.    w.    [.}. XoXXXj.  '.R.'.Q.  .XXXG.P.            w.G.R.C.    y.y.      y.!.x.  z.D.",
"  2.k.p.p.w...    t.2.2.w.w.p.q.D.F.D.W.'.C.    R.'.W.'.'.'.S.  '.'.G.Y.    P.B.  P.'.P.G.    j.c.C.  K e.Y.[.C.e.  w.E.v.  C.G.",
"  y.Z.,.} p.}     } t.p.1.e.k.  G.[.D.R.D.Y.R.  D.E.'.'.'.R.Q.y.U.XXE.D.    }.  C.%XXXW.'.%XD.      q.A.P.Y.E.P.Y.1.  Y.!.Q   Y.",
"  a.H.{       p.  E s.k.j.m.q.    D.Y.D.G.c.P.  Y.E.oX'.U.G. Xp.z.*X.Xh.R.;X,X'.j.]. X'.E.'. Xp.  h.Q.'.I.R. XP.k.h.  k.C.    C.",
",.  ,.    1.w.      w.k.p.t.  E.    2.D.U.m.U.S.%X{.].P.G.'..Xe.  U.C.  oX{.{.'.V.'.{.{..XW.].c.&.h.E.R.Y.R.'.C.F.G.      ,.E   ",
"1.      t.a.s.s.k.t.  ..&.    Q..XC.    ,.F.  C.XXW.'.W.{.$XG. .  [   z.{.V.R.S.F.W.'.{..XoXXXC.q.y.P.'.[.'.'.F.U.S.    m.a.p.  ",
",.    v.w.=.,.w.t.a.    F.    F.R..Xh.  F.W.z.  R.R..X&XXXR.) > O.o.) @.` ; M J x.'.'.'.'.'.XXG.y.  C.'.R.{.W.W.'.e.  k.G.k.D.p.",
"E   +.p.1.w.=.} ..=.  G.+XU.k.W.U.W.Y.1.F.k.    1.| h.G.r.` - o h.A.T.A.H B o.w.' '.'.'.R.'.XXY.y.  q.}.'.R.U.'.'.,.  C.B.D.E.S.",
"    &.t.t.t.w.=.{ =.1.c.U.F.C.W.G.R.R.,.    Y.C.  X ) G @.k._ m._.|.).h.k.L.)._.W x.'.]. X'.'.Y.      x.*XE.R.W.v.    .XD.C.W.P.",
"    ,.t.w.w.t.t.i. ...k.'.  C.Y.F.E.F.  C.+XR.'.o.; ' o.T.T.L.|.)._.T.T.)._._.|.C ' &X&X$XE.S.    C.    z.E..XS.K     D.G.D.}.P.",
"v.,.1.k.w.t.p.a.s.  =.}.z.  k.R.E.Y.  w.Q.U.C.R._ J n h._.T._._.).).)._.).)._.).C 5 D.E.P.B.    U.%X}.G.    D.    '.'.    C.F.  ",
"a.=.  2.i.a.=.=.{     -.  w.m.Y.C.  <.Z.C.j.Z.F._ <.| J.A.J._.).).)._.).).)._.T.o.H     E.G.    }.oX'.*XP.    G.=X=X=X XP.      ",
"]       { } } y.B.B.z.q.  w.!.k.  ,.Z.C.j.y.S.e.) j.h.k.y.K.).).).).).).).).).T.M.`   m.%X&Xk.  p.'.'.].%Xq.k.:XoX XoX$XXXY.C.  ",
"  ..h.z.    C.D.I.I.Q.C.h.  p.  =.m.C.C.S.k.z.e.' j.p.p.j._.`.`._._.)._.).).)._.K.i V k.Q.Q.'.P.  C.XX{.}.1.R.$XoXoXoXoXE.{.G.  ",
"..t.G..X  y.K.j.z.G.P.D.E.c.    s.k.c.G.'.l.k.X.W n.k.p.m._.)._._.L._.`.).).).`.A.; P   Z.E.'.Q.  w.-X:XY.  '.$X XoXoX X].%Xz.  ",
"t.z.G.H.] e.k.p.C.P.G.P.R.}.  Q a.C.D.U.P.O.P ` O.a.r.@.<.a.e.e.p.| m.J.).)._._.!.B `   D.].'.}.j.  k.D.    ].oX XoX XXX=XC.    ",
"k.Y.D.v.=.q.G.C.B.p.B.Y.R.P.h.  a.C.G.D.z.| 8 0.e.| D x h % X C O.- J J K.).).`.D.J     A.'.'.}.w.    P.    '.].oXoXXX*XC.      ",
"=.x.y.1.=.[ D.S.k.p.j.D.G.P.p.  t.m.C.C.P.D.+.` ) $ @ j c l 5 M.#X,.= V w.p.L.T.H l.'.    Q..XC.    E.oX}.<.'.=X%X-X.XC.  G.C.2.",
"=.y.y.w.+.  j.c.h.C.C.D.C.P.m.    =.k.H.R.Y.=.- * l l m m c r c.#X` _ L.,.= @.1.H R.%XG.    h.    R.%X X.Xc.  ].R.F.    U.{.R.Z.",
"=.=.=.1.[   ,.a.k.G.R.I.D.B.w.      { 1.q.[   N * l * l 2 2 # V ` 7 F m.j.O n n B C. XXXY.    U.].'.'.'.'.E.          k.R.U.R.U.",
" .&.{ } R     2.H.j.h.k.      1.D.S.z.      q.C 3 V C L - L a . d p i p H $ n * o.[.'.[.+XG.  XXW.R.R.'.E.W.+.S.'.XX  j.Y.U.P.R.",
"  E T   w.w.+.      k.k.k.C.  -.G.R.Y.z.  j.z.! Y W %.*.k.] K K 5.~.5.f o a 2 l f.E.Q.'.[.Q.  R.[.W.{.R.R.[.p.m.XX$XG.j.I.Y.U.U.",
"    w.t.p.c.C.w.  j.m.H.G.'.k.=.Y.Y.R.{.<.h.h.%.>.G f d.,XG J Z.7.(.(.>.C a - r 9.x.Q.Y.W.Q.  Y.XX'.[.U.U.}.k.e.U.F.k.P.P.P.R.G.",
"{ i.i.i.w.i.k.m.R j.C.C.G.E.p.=.I.G.P.j.,.  g.T 5.p ;.b.,XA.k.).6.(./.d.u.w B q V.@.m.Q.[.Q.    $X$X'.G.R.%Xe.  Y.!.k.  U.R.P.S.",
"{ t.t.t.y.=.t.w.Q   c.B.a.c.j.,.G.R.C.c.l.  G.-.~ > %.%.g.L.P.3.7.(./.M.^.$.V 3 r.r.C.!.XXF.      U.E.E.W.c.      m.    R.U.C.C.",
"..s.w.p.p.1.t. ...  k.Z.t.v.a.  c.D.a.z.k.  G.R.l.G q 7 % ^ J n %.>.:.| J.[ - ` 8.g.U.P.+X|.C.F.U.          W.'.W.D.    Y.R.G.h.",
"  1.a.e.w.t.,...T     w.p.i.      y.p.i.,.  x.l.x.X.X $ * O & j g g l 2 H V i N.r.j.G.  A.Q.{.'.{..Xa.    %XXX{.'.%Xk.  F..XC.  ",
"e.,.,.w.t.1.Q     C.C.  1.  C.G.    ,.,.    0.N N n < 0 > n n l c j j h o - 0.G.C.E.Q.) V G.'.Y.U.W.[.T   OXU.Y.R.W.C.T w.y.    ",
"C.A.1.  =. .  ,.H.E.H.D.    H.B.  D.R.      ( l n * 2 0 + a y , r 6 5 3 ' x.P.l.x.g.o.N M F.P.Y.Y.C.'.e.j.$X'.R.W.R.Y. .      C.",
"j.C.C.=.    Q t.C.C.k.C.H.  j.C.Y.Y.E. XA.w.P z l D / 4 y e e I I , 2 : z h.r.0.9.| ' ) C.G.U.U.R.R.E.w.h.$X{.Y.R.'.P.  z.p.  G.",
"j.k.k.j.w.  =.t.C.B.C.C.C.=.  Y.G.m.c.C.a.G. .' #.x.V.I n - - U t = : # p ] F O.H H '   P.C.k.P.'.{.Y.  C.$X'.R.[.R.F.        m.",
"B.y.t.w.C.-.1.k.B.C.l.a.k.Q j.D.C.C.D.D.D.k.    z.P.f.n I u 6 U e : - X T ! x ( ^ e.    B.P.C.Y.'.C.q.  G.$X'.'.[.R.j.  D.j.  1.",
"C.B.j.t.c.q.2.k.c.j.t.s.=.  G.D.a.p.p.p.w.    y.S.U.q r Z y A U I , 8 ; 4 l O. XP.  oX*X    B.C.z.      U.oX'.W.'.!.} w.G.Z.  { ",
"h.G.B.v.D.=.j.C.p.i.k.,.      k.j.1...q.    j.G.W.=XJ 7 n y I Z I e M B @ N j.    '.*XP.C.        1.w.  G.].'.XX'.y.  c.k.m...  ",
"  y.D.C.D.=.q.c.w.,.+.  ,.[     w.j.c.C.P.  x.Q.U.F.  , u J e u e r 9.C.  E.G.    '.XXP.F.    q.c.H.H. .C.}.R.R.l.  y.G.C.p.    ",
"q.  c.D.c...  .. .        -.v.k.C.G.H.U.'.m.  C.U.x.S.) B | 5 H 6 D '.[.R.+X+X%XP.  R.XXI.  y.!.c.C.p.1.    C.D.    G.Y.z.]   p.",
"p.  2.I.z.    T R +.=. .  1.G.D.C.j.B.S.C.c.    q.l.Y.P.G 3 # r./ 8.$XB.C.F.'.oX-XE.  p.h.  C.z.C.G.j.p.{   D.XXE.=.y.z.  k.S.  ",
"y.=.  y.a.  &.=.,.i.2.2.+...j.c.c.j.B.B.B.y.E   0.h.f.h.z.5 = : X.R.N.` l.N.S.R.].=XC.    w.c.z.B.S.G.k...  E..X'.C.    j.I.XXS.",
"t.a.    R R { 2.2.t.1.t.,.  M.B.y.B.B.C.y.0._ ' r.f.f.g.z.q.  8 f.F.  W C.N.N.F.W.'.G.  +X  h.!.B.D.k.S.y.  E.'.{.H...p..XP.U.[.",
"t.c...  E { ..2.2.w.,.,.[    .j.k.k.k.j.w.p.=.R l.l.g.N.C.J f.N.        r.'.E.'.'.$XE.x.R.    k.k.P.z.G.I.  Y.$X'.E.,.h.E.G.U.R.",
"t.c.=.   .{ <.<.&.1.e.,.        j.m.k.t.a.k.  ] p.c.S.C. .  F.+X    C.j.  c.XXXX'.%XP.    {.R.  h.Q.Q.!.h.  C.'.D.R.p.q.W.G.G.U.",
"t.p.2.R ..{ ..1.,.1.t.t.  2.i.R   h.H.a.1.    2.c.Q.Y.h.    G.C.z.XXY.G.C.  G.'.W.P.    C.:X%Xm.  k.D.p.    z.+XZ.}.    [.Q.G.Y.",
"2.A.p.  ..Q [ ,.1.w.a.Q   ,.a.a.<.  w. .        j.G.  G.$XS.    N.XXD.k.H.y.  '.Q.  '.R.m.'.U.Q.    y.k.y.=.  Q.XXG.    z.U.U.m.",
"2.p.    Q ..{ ..2.{   =.  ,.=.q.c...    k.U.G.G.k.    Q.{.[.    0.R.C.k.C.Z.      '.=XR.  G.D.G.    c.G.G.m.Q       z.k.Q       ",
" .&.      Q R E Q   k.H.  ,.1.+.c.M.2.{ Z.G.Q.R.D.     X X'.c.  q.G.m.C.C.C.c.    &XXXW.  z.R.C.  c.G.S.c.D.y.d   e.G.R.a.{ 1.1.",
"p.w.t.}     }       p.C...=.1.1.p.k.p.q.t.a.D.U.Y.x.G.$X'.'.Y.  h.D.D.F.F.C.Y.y.  XX{.;XY.p.;XS.2.a.j.B.h.S.D.1.  <.j.G.P.t.v.Y.",
"p.p.i.1.   .w.2.y.y.p.1.  1.w.2.t.c.a.e.G.j.c.D.G.k.E.]. X'..X  k.R.R.U.G.G.Y.C...'..XE.        w.t.c.B.y.c.R.h.  2.2.F.P.C.z.U.",
"w.w.e.=.  <.m.j.k.c.k.w.  =.a.p.p.k.p.  y.c.H.H.j.P.'.Y.'.'.$Xj.  G.G.U.S.P.G.C.}     z.k.C.    a.k.B.B.y.G.Y.w.  t.2.p.m.C.p.p.",
"w.t.t.{   2.k.a.p.a.t.a.+.  w.j.t.i.e.  1.q.p.    P.U.R.E.E.'.G.  P.Y.z.z.B.R.G.]   P.'.'.XXS.  w.k.C.k.q.C.k.k.  ] A.C.B.B.w.t.",
"w.i.2.R Q t.t.w.w.i.t.e.w.  =.t.w.a.2.1.a.t.w.  y.'.'.E.R.'.G.D.t.e.E.P.k.N.C.D.K F.XX].$XW.C.  p.p.B.k.t.a.D.p.    +.c.C.U.z.k.",
"t.1.2.  ..s.i.e.w.+.2.p.2.  { p.t.a.1.w.w.j.D...q.W.W.'.E.c.C.G.h.  w.'.I.G.'.p.  W.oXoX.X}.C.  p.C.P.y.l.H.p.  y.M.    ] c.D.1.",
"2.=. .    ,.1...{ Q ,.2. .    ,.p.t.  =.i.p.k.e.  z.P.P.C.c.C.c.      y.k.y.j.    G. XoX'.G.      1.c.k.k.p.    y.h.      R q. ."
};
