/* XPM */
static char *_1512732bcad406392bca2e656fdc52a8Z2EpOs2ww0FD5cJ[] = {
/* columns rows colors chars-per-pixel */
"64 64 173 2 ",
"   c #4F453C",
".  c #645D57",
"X  c #685E54",
"o  c #6D645C",
"O  c #726962",
"+  c #76726F",
"@  c #80776E",
"#  c #867C72",
"$  c #8B837C",
"%  c #8B8683",
"&  c #958C83",
"*  c #988F86",
"=  c #999087",
"-  c #9D948E",
";  c #9F9890",
":  c #A39B93",
">  c #A89E95",
",  c #A69F99",
"<  c #ABA195",
"1  c #ACA49C",
"2  c #B1A79E",
"3  c #B2A99F",
"4  c #BDAB9F",
"5  c #ADA6A0",
"6  c #B4ACA4",
"7  c #BAAEA4",
"8  c #B5AEA8",
"9  c #B7B0A6",
"0  c #BAB1A7",
"q  c #B5B0AA",
"w  c #BCB3AB",
"e  c #BDB6B2",
"r  c #BFB8B1",
"t  c #C2B6AD",
"y  c #C8B7AD",
"u  c #C2B9AE",
"i  c #C0B7B1",
"p  c #C5BCB4",
"a  c #C9BEB5",
"s  c #C5BEBA",
"d  c #C8BFB8",
"f  c #C5C0B7",
"g  c #CAC0B7",
"h  c #C6C1BA",
"j  c #CCC4BB",
"k  c #CEC8BE",
"l  c #D3C3B5",
"z  c #D1C6BD",
"x  c #D2C9BE",
"c  c #DACBBC",
"v  c #C7C1C1",
"b  c #CDC6C1",
"n  c #CEC9C2",
"m  c #D1C7C0",
"M  c #D4CCC3",
"N  c #D9CEC4",
"B  c #D4CEC9",
"V  c #D8CFC8",
"C  c #D6D0C6",
"Z  c #DAD0C6",
"A  c #D6D1CA",
"S  c #DED6CB",
"D  c #DDD5CA",
"F  c #DDD2CC",
"G  c #DED3CD",
"H  c #DCD3CE",
"J  c #DBD4CE",
"K  c #DDD4CD",
"L  c #DCD5CD",
"P  c #DED5CC",
"I  c #DFD5CC",
"U  c #DDD6CC",
"Y  c #DFD7CC",
"T  c #DFD6CD",
"R  c #DED7CD",
"E  c #DDD5CF",
"W  c #DFD5CE",
"Q  c #DDD6CE",
"!  c #DFD7CF",
"~  c #DCD3CB",
"^  c #DFD8CE",
"/  c #DED8CE",
"(  c #D7D1D1",
")  c #DBD3D0",
"_  c #DAD5D1",
"`  c #DDD6D0",
"'  c #DCD7D3",
"]  c #DED6D3",
"[  c #DDD6D1",
"{  c #DFD8D0",
"}  c #DDD8D2",
"|  c #DFDBD2",
" . c #DEDAD1",
".. c #DED9D2",
"X. c #DFDBD8",
"o. c #E2D4C6",
"O. c #E0D3CB",
"+. c #E2D5CC",
"@. c #E0D6CC",
"#. c #E1D7CD",
"$. c #E0D7CE",
"%. c #E1D7CE",
"&. c #E1D6CC",
"*. c #E0D8CD",
"=. c #E1D8CF",
"-. c #E0D9CF",
";. c #E1D9CE",
":. c #E3D9CF",
">. c #E2DACF",
",. c #E2D8CE",
"<. c #E9DCCE",
"1. c #E0D7D2",
"2. c #E0D7D0",
"3. c #E1D8D1",
"4. c #E0D9D1",
"5. c #E2D9D0",
"6. c #E1DAD0",
"7. c #E3DBD0",
"8. c #E3DAD1",
"9. c #E2DBD1",
"0. c #E2D9D2",
"q. c #E1DAD2",
"w. c #E3DAD3",
"e. c #E2DBD3",
"r. c #E7D9D0",
"t. c #E5DBD1",
"y. c #E4DAD0",
"u. c #E4DBD2",
"i. c #E4DCD1",
"p. c #E5DDD2",
"a. c #E5DCD3",
"s. c #E4DDD3",
"d. c #E6DCD2",
"f. c #E7DDD3",
"g. c #E6DED3",
"h. c #E1DAD4",
"j. c #E3DCD6",
"k. c #E4DDD5",
"l. c #E6DDD4",
"z. c #E7DFD4",
"x. c #E7DED5",
"c. c #E5DCD7",
"v. c #E6DFD7",
"b. c #E7DED7",
"n. c #E3DBD3",
"m. c #E8DBD2",
"M. c #E8DFD6",
"N. c #E9DED4",
"B. c #E4DDD9",
"V. c #E8DFD9",
"C. c #E4E0D7",
"Z. c #E9E0D7",
"A. c #EAE0D6",
"S. c #EAE0D6",
"D. c #E5E0DC",
"F. c #E6E0DA",
"G. c #EAE1D8",
"H. c #EBE3D8",
"J. c #EDE3D9",
"K. c #ECE5DD",
"L. c #EEE5DC",
"P. c #EFE6DF",
"I. c #EBE3DB",
"U. c #EFE8DE",
"Y. c #F0E6DC",
"T. c #F1E8DF",
"R. c #F1E8DF",
"E. c #E6E2E1",
"W. c #EBE5E1",
"Q. c #EEE9E3",
"!. c #F3EBE3",
"~. c #F8EFE8",
"^. c #F9F2EA",
/* pixels */
"+.a N m.D j f x f Z S D S C c C S.D x N o.Z x >.Y C.z p >.^ k C D M M a *.x M ^ *.S Z S x D m ~ D O.z M r.+.a a m.N +.V 0.h.B ~ ",
"O.D z x >.&.x k Z Z ^ Z i.c c M Z z j O.Z D Y M Z M D &.Z k C.K.P D D Z Z Z Z D D C.*.x k S.S.j Z +.N V N a a N N O.V M N 2.| M ",
"p N M Z D Z C.>.^ x ^ D ,.,.Z M u N Z a.g Z S.x u M *.D C j A M D D ~ u.p.Y C D Z Z Z x g x Y Z V N +.V y a r.m J.r.c O.~ U B k ",
"&.O.N Z C C Y ^ D C ^ p.x >.M M Z N x S.D z M M Z x p j j C k ~ M M h u H.Z j z >.C.>.*.a.D x 7.M +.O.V d N N t a N O.M k A C  .",
"D D M x u.~ u j *.M P l.x :.M Z 7.*.P D S.Z j M h z j $ M D J ^ ~ M p 1 *.D Y Y 7.Z R.*.1 m a.h 1.V B V.M m V p a z D k j j x ^ ",
"u g N N +.P z C S.j N P ,.Z Z O.a D ~ 9 j M x z M j N g C *.} 7.P.*.M k Y Z C Z Y >.a.M 6 N 2.P ) c.b V 1.V M z &.a.D &.7.x ~ ^ ",
"D M D ~ M *.H.a.Y j M N *.Z D M D N x h N D a.M N 7.~ h M Z x f a j M C.Y Y C Z >.C k q.q.l.l.J V ( s V 2.+.M 6 1 Z Z x x C a.D ",
"+.a.~ D ~ m D 7.x Z ~ V N Z M u *.D q.J.~ N C.g +.^ i x ^ C j 3 1 B ^ ~ Z C.x f M D k ~ m h B.A 1.] i M ) ] V s 6 x Y Z C Y x x ",
"P P a.M Z Z Y Z Y Y C Z M ~ q.m | k m w } 6 h m k ^ ^ ^ Z j 2.M n j.7.J } ^ M M ^ C } ~ q.~ } A ( E.' n X.| h | C.*.q.D M N *.+.",
"~ m J M 7.*.k >.j S.Y a.m M m q.| j k q ~ C h b g Y M Z P j x *.M B J J ~ J 7.C U 7.C ~ ^ h ~ j.' n B X.X.n _ E.J P } P D l.u.g ",
"A [ } P.l.u *.Y *.^ S x ~ A j.M k J U./ A ^ I.M / J U.f m P *.~ } J C.} q.7.A C ~ j.^ J b b [ b v A n ' n v B D.} B A l.V.u.P M ",
"B M k ^.l.& ~ Z C &.Z Z M l.} h r ^ F.A q.C J k A ~ 2 M g h +.M ~ } A M ^ ^ b A ~ r j A M [ F B A A e n B _ n A A h b h.[ z M q.",
"_ B M } S.M ^ *.M 7.Z j M } A J X.h C.' C A ~ A 7.a.: j j 6 j q.J j.w b J ) J M / h f s A A B ' k X._ n v X._ B B B A ' [ J [ a.",
"n J j.j.a *.Z ^ S.D D g } A J } J ' ' n k / M ^ j.} j.~ S.k m j B B h.h.b J / j.7.7.J C A A ' ' _  .| B X.B B _ ( ( B B P a.2.V ",
"E.b 6 I.Z C Z j D Z ^ *.A J B J _ X.A C b  .C.b P ~ k | Z x 7.^ [ s J A A Q.} n | J J X._ A A ( C | _ A X.B B X.D.' A A } X.2.[ ",
"A h 1 A S.Z *.M C D ~ r A J J }  .A X.b C J J ^ M k k C J.^ ~ 7.[ ' B n A n } p A C.A b M B.q e k e : B v n X.B B _ _ } } J J P ",
"^ J k A ^ P } Z ^ q.~ J P A J _ ) }  .A  .^ M Y j a 6 O.C.x S C ] ] ] d v B m B ' C h f k C k B A n 5 r M } M } j.q.~ ~ A C M ^ ",
"Y C.J ^ ^ } } M j [ _ J J j.M b B /  .' M ^ 7.7.V +.a.D C x C C ] ] m ( V.V.d V U.A C /  .n _ n A X.J f C m J [ a.~ x C ^ ~ C 7.",
"M 7.~ J A C j w m q.[ P J C.b M J ' C A J J A m r.V m 2.D ^ H.~ V ) V m V.s o v A j C./ 1 n |  .^ ^ ' C l.j x D D Z m j M ~ ^ C ",
"p C k ~ ~ } M p q.q.} } [ j.b } } ' ' _ j e M P 1.V d m.j x C Z V.1.] c.c.V 8 V I.j.k $ h | C C w C } / M j x C D C D M j x Y j ",
"M q.C } C.7.} } P ~ } h.B.q.b _ ] ( X.E.s e B ] V V c.) w Z x / V M +.0.V 2.V.m.~ J ; $ C.~ U A f D *.H.D *.^ C.~ M P q.D x C j ",
"C 7.A ~ ~ j h k A M h.[ [ [ B J E.E.( ( ' E.b v ) ) ) M M H.S.c   5 l.V a.N w d P l.M I.Z k / / *.Z z &.&.Z Y ^ a Z ~ D S.D D ~ ",
"C >.J ~ C.M M C A J [ P M [ h.' b B B v ( 1.b ( v ) V F P N S 0 o N N.D ~ Z D h N F V.2.C.C.U Z O.Y &.D x x p.Y a P Z x j ~ N.D ",
"M M h a j.M P q.J P A q.b J B.B.% + v v ( B V.( - i +.*.Z O.c l N.m.V u.Z u.+.*.b F B M C C / C *.c c C.@.c Z Z P P D M 2 i N.Z ",
"k k k j ~ j.P M | 7.B j.I.p e B.s ( ] ( _ B.B _ 1 j F D Z ;.c *.o.M D *.D D a.a.k h  .A C.C.c f o.c o.o.o.C M Z M J M ~ D M N *.",
">.Z C J } M } i w C h.} ~ s h ) ( X.B e h B A ' B.+.Z M c <.c *.g Z O.D P ~ M D A n A k Q.Q.: + c c H.@.C Z Z U.M w C ~.q.M :.M ",
"C Z } *.k f A M p B C.J j B [ J l.~ s b n 9 p V P ~ O.N c c o.c N M D u.P q.^ m C.C A f | Q.f f <.c o.&.x &.C C A b M | ~ F u.M ",
"C D C.} M } j B.P ~ _ j h J q.~ ~ V.h.J m M b B A a.7.l o.<.c c &.x ~ q.j k } j.C C  .A | C C p.<.c <.H.u z j./ / / n A *.z z u.",
"Z ~ ^ M b j.a C [ } l.J A } [ h.q.a.2.j a [ V J M w N *.N <.<.< a q.A q 5 _ C.B  .| _ f F.A k C x <.g j C.>.~ A B _  .| M f M a.",
"Y C M h k J 7.A j ~ } J [ [ A J x 2 7 p J +.V h.[ m M N o.o.o.z [ B j J n C.X.J  .A n , h | / ^ j c k c C n / n _ _ / A h m *.D ",
"^ j r 9 M ^ C.A M P [ } } [ [ P x a M V a.2.B b M j.I.q.O.Z c :.~ s n E.v n A n A A | f h | ^ C o.o.@.Z k h _ X. ._ B A | C M Z ",
"D D M g M D x 7.^ } P j.~ j ~ A j *.u.+.m J ] M j l.2.N D a.Z >.[ [ A A s B _ n _ C.A A U U ~ a.Z j D Z  .| _ B _ C./ C C ~ >.Y ",
"+.N O.m.+.D N N C.^ Z C.n ~ A C V o.o.O.z z p +.j N N.N O.O.D D +.h.5 6 ' l.~ A / C C.J P J A ^ ^ M &.D ^ 7.A ~ } ~ w D +.+.+.u.",
"+.o.O.o.Z O.V c g Z Y C k Y / M N o.r.O.N a z +.N N +.O.m.+.N ~ i 1 & t q.C.} P } M ^ C.C.A M ^ ~ C a.*.Z C n A ^ P j z D N.+.M ",
"+.c o.o.o.D O.0.x M C ^ ~ J A x m N O.o.+.N.+.c M O.u.M N ~ P q.h h M Q.J M j A r J J r 0 M ^ M x x P D ~ ~ ~ P A q.+.M m +.N +.",
"o.r.+.N M +.r.N Z D >.^ n ^ J s N +.+.+.+.N z a N N O.m D D m a P q.q.C.A / j ~ ^ b r M C ~ A ~ Z C D D ~ P A M q.F P P +.N o.r.",
"N o.N N N +.1.V Z q.h.V J J J B N O.m.V 2.w t z c M q.F V j j V } M M h.7.C.p w ~ j a B A M j m q.D D P P q.P B V M m O.o.a N O.",
"N N o.N.+.m N Y.j j s 0 I.B b P m F r.N N.2.j D 2.F F M ~ B F c.J m J A j J } J r d M C j h j J D Z ~ P ~ D P ~ N V N +.m a N O.",
"N +.J.m.N c V r.B a.M i j.B.] B N N 0.+.V !.~ J F l.!.2.B M M B q.P l.P M M ~ ~ 5 w M m M P M j D *.+.P Z Z ~ m 0.+.F +.N r.+.O.",
"a m O.O.V V 1.2.a.V.0.2.M ) M M a.w a a M N.B P ~ V 2.F J b j B l.q.F P Q.M b l.h j [ M P j.P J P P P ^ +.q.q.~ N m F F a +.N O.",
"a +.+.d d +.r.1.q.F J V.B 2.s p F m p s m M V b M J M i s n [ P 2.N l.a.~ f x a.D a P l.~ Z M D D C m +.D a.N +.V 0 M u.N N D a ",
"a o.r.d +.r.V +.F F ] F ] 0., . s V 2.V V r.a.V M V ' M M h.h.P b ~ P ~ M +.~ D M N ~ ~ M ~ D ~ l.6 = j +.~ z 2.F N M N l.0.O.M ",
"+.N F o.N N 1.V [ D ~ M ] ] p $ d V N M 2.2.] M M M 2.m i ' ) q.B P N j k *.~ M M *.~ a.+.Z q.~ q.m p +.~ 0 c Y.m.*.~ u.G.~ 2.u.",
"a F N O.0.V N +.V M [ P F M ] d : z V M ] V M F M m P B b B J B Z *.P a m *.+.x m l.M D I.N M +.u.[ D ~ I.M m.N +.Z D N.a.M N V ",
"Z x o.@.M D O.O.Z +.7.q.V M 2.j : D u.M M N D +.I.V V D P [ B.P N m D N +.~ ~ ~ ~ M P D m Z q.P M M F M O.N N M z N N M D F d p ",
"z.c *.g r.+.z u.a.l.P P V 2.a.D N N.D z M N V D I.F V V ~ M l.l.D M N u.A Z M P a.z +.a.z k V M a.2.P D M N m +.N M D D M 2.M h ",
"S u > y A.:.Z N +.+.2.P a.+.~ [ D +.P u.2.N N N M M [ F M M M M D P D x p +.*.m Z +.Z N l.j 7 D m F ~ M a a m O.m.o.D l.~ +.2.D ",
"*.c o 0 O.x O.N N D l.D l.[ N 2.D F +.q.+.D J c F D +.V M h.j k +.i j M x N +.~ D q.u.q.P N N P F 2.P M r.m m.N N +.d z D *.V ~ ",
"g L.f j N.h N +.q.N D z Z >.S.>.P P F P M *.+.M D N M P q g Z x *.Z z Z N.M N O.O.O.Z O.:.:.D l.[ P ~ m a.P.M D D M D M x :.Z z ",
"1 k Z Z ~ l.l.M D D O.M &.Z z N.I.P F J ~ l.V V q.Z M ^ k Z U f j D z M O.*.N N a.*.Z x +.N.u.M q.~ q.V V N.Z *.!.O.M x N Z :.Z ",
"h V M j M l.M Z +.+.S.:.@.Z c >.l.J F ~ D l.M D *.D D *.Z D D x Z Z Z ~ N.z M O.*.O.q.a.a.D N z D 2.j D D N j :.A.+.N :.3 M Y.x ",
"O h ~ Z q.P M Z *.N D a.*.Y c j P F F V P a.~ D ~ *.7.^ Z z D O.M O.O.I.M +.D D D Z +.u.O.M +.N.M I.M m M D j h j M O.N.:.Z *.O.",
"6 F M ~ l.} S.x O.D M Z &.*.<.S.~ h.~ B q.+.D z M D :.O.,.z c Z N j a z z m M V.Z Z +.~ F D +.M Q.N ~ P ~ ~ u.m p Z O.Z y x x &.",
"l.+.~ ~ P m D D D D M x z &.<.k P l.M M +.P O.p Z +.<.,.,.l c o.D *.M > N M N M N M u.u.N.M j w N.p = *.D j P D x :.D z # z Z M ",
"M +.P m Z ~ M ~ D D :.l & < Z x D +.M m ~ ~ q.g O.u.o.+.o.l c o.N.I.D M h.V.j j M m P P q.j b ~ N +.- ~ D q.*.D :.:.x x z :.D O.",
"P ~ j M Z m j ~ O.z x H.x z :.>.D B J M ~ P S.+.:.+.o.o.o.c c o.F M N V m h.J m j M q.M q.M F q.P V P Z N *.j M O.O.x Z >.>.&.D ",
"Z u.M ~ N.~ m P &.Z :.M Z :.N j D u.~ M ~ V.u.F d o.+.l o.c o.o.~ j m P i V a.V P j.~ V q.2.+.P ^ c C k k i.f k >.D Z j @.<.Z Z ",
"+.q.P *.~ D P D D D D N N.N.Z &.Z N 2.J V p j 2.c +.r.N o.l l <.+.P F q.M [ [ 2.M q.a.M d p P.q.f j *./ j S c x O.A.u z Z g >.c ",
"l.~ j P N P u.u.*.:.D N Z O.Z O.V p V 2.m J 2.N +.N +.o.c c l o.+.M N *.D M M D ~ Z D Z j 6 M ~ >.C Y *.Z Z U f Z O.g x x c Z *.",
"P q.z ~ Z ~ x M N.M M N.Z O.>.Z N m l.a.a B M p r.+.+.o.c c t l u.M F u.N ~ +.M j ~ ~ M V +.m M Z Z c S i.S x k &.D @.<.S H.t u ",
"j Z Z 7.Z ~ j h N 0 6 ~ D *.a.O.z N 0.c V d s ( ] t d +.o.c 4 y *.*.*.D Z u.l.j g a.Y Z C U c C x D ^ S U H.*.k ^ p.x c c <.f 2 ",
"x u f I.D D D z D D a t x D P N.p j p a r.+.) I.V., d J.N m.o.y N D x x P P j j Y C.D D x f U D S.C S S f c *.x c p.c x g *.*.o.",
"C.u p S.*.D P z +.R.D 2 u M m D c N m N d V c.V ] ) m.r.+.m.c N D D j Z *.D g Z Y >.>.c k D / D p.k C Z 9 < c p.f f <.x k <.c S ",
"z x D *.^ P q.z F ~ N t N u.M N m.l.2.+.V B I.M v ) G m r.o.y z Z &.C D C a.*.*.D x ^ x Z C.3 D p.^ c Z k 1 C S l f S c *.U.S c "
};
